<svg width="1161" height="54" viewBox="0 0 1161 54" fill="none" xmlns="http://www.w3.org/2000/svg">
<path d="M17.642 16.0227V37.8409H15V16.0227H17.642Z" fill="black"/>
<path d="M25.1127 27.9972V37.8409H22.5985V21.4773H25.0275V24.0341H25.2406C25.6241 23.2031 26.2065 22.5355 26.9877 22.0313C27.769 21.5199 28.7775 21.2642 30.0133 21.2642C31.1213 21.2642 32.0907 21.4915 32.9217 21.946C33.7527 22.3935 34.399 23.0753 34.8606 23.9915C35.3223 24.9006 35.5531 26.0511 35.5531 27.4432V37.8409H33.0389V27.6136C33.0389 26.3281 32.7051 25.3267 32.0375 24.6094C31.3699 23.8849 30.4537 23.5227 29.2889 23.5227C28.4863 23.5227 27.769 23.6967 27.1369 24.0447C26.5119 24.3928 26.0183 24.9006 25.6561 25.5682C25.2939 26.2358 25.1127 27.0455 25.1127 27.9972Z" fill="black"/>
<path d="M47.4343 21.4773V23.608H38.6133V21.4773H47.4343ZM41.2553 37.8409V19.2188C41.2553 18.2813 41.4755 17.5 41.9158 16.875C42.3562 16.25 42.9279 15.7812 43.631 15.4688C44.3342 15.1562 45.0763 15 45.8576 15C46.4755 15 46.9798 15.0497 47.3704 15.1491C47.761 15.2486 48.0522 15.3409 48.244 15.4261L47.5195 17.5994C47.3917 17.5568 47.2141 17.5036 46.9869 17.4396C46.7667 17.3757 46.4755 17.3437 46.1133 17.3437C45.2823 17.3437 44.6822 17.5533 44.3129 17.9723C43.9506 18.3913 43.7695 19.0057 43.7695 19.8153V37.8409H41.2553Z" fill="black"/>
<path d="M56.9318 38.1818C55.4545 38.1818 54.1584 37.8303 53.0433 37.1271C51.9354 36.424 51.0689 35.4403 50.4439 34.1761C49.826 32.9119 49.517 31.4347 49.517 29.7443C49.517 28.0398 49.826 26.5518 50.4439 25.2805C51.0689 24.0092 51.9354 23.022 53.0433 22.3189C54.1584 21.6158 55.4545 21.2642 56.9318 21.2642C58.4091 21.2642 59.7017 21.6158 60.8097 22.3189C61.9247 23.022 62.7912 24.0092 63.4091 25.2805C64.0341 26.5518 64.3466 28.0398 64.3466 29.7443C64.3466 31.4347 64.0341 32.9119 63.4091 34.1761C62.7912 35.4403 61.9247 36.424 60.8097 37.1271C59.7017 37.8303 58.4091 38.1818 56.9318 38.1818ZM56.9318 35.9233C58.054 35.9233 58.9773 35.6357 59.7017 35.0604C60.4261 34.4851 60.9624 33.7287 61.3104 32.7912C61.6584 31.8537 61.8324 30.8381 61.8324 29.7443C61.8324 28.6506 61.6584 27.6314 61.3104 26.6868C60.9624 25.7422 60.4261 24.9787 59.7017 24.3963C58.9773 23.8139 58.054 23.5227 56.9318 23.5227C55.8097 23.5227 54.8864 23.8139 54.1619 24.3963C53.4375 24.9787 52.9013 25.7422 52.5533 26.6868C52.2053 27.6314 52.0312 28.6506 52.0312 29.7443C52.0312 30.8381 52.2053 31.8537 52.5533 32.7912C52.9013 33.7287 53.4375 34.4851 54.1619 35.0604C54.8864 35.6357 55.8097 35.9233 56.9318 35.9233Z" fill="black"/>
<path d="M68.1845 37.8409V21.4773H70.6135V23.9489H70.7839C71.0822 23.1392 71.622 22.4822 72.4032 21.978C73.1845 21.4737 74.0652 21.2216 75.0453 21.2216C75.2299 21.2216 75.4608 21.2251 75.7378 21.2322C76.0147 21.2393 76.2243 21.25 76.3663 21.2642V23.821C76.2811 23.7997 76.0858 23.7678 75.7804 23.7251C75.4821 23.6754 75.166 23.6506 74.8322 23.6506C74.0368 23.6506 73.3265 23.8175 72.7015 24.1513C72.0836 24.478 71.5936 24.9325 71.2314 25.5149C70.8762 26.0902 70.6987 26.7472 70.6987 27.4858V37.8409H68.1845Z" fill="black"/>
<path d="M79.3466 37.8409V21.4773H81.7756V24.0341H81.9886C82.3296 23.1605 82.88 22.4822 83.6399 21.9993C84.3999 21.5092 85.3125 21.2642 86.3778 21.2642C87.4574 21.2642 88.3558 21.5092 89.0732 21.9993C89.7976 22.4822 90.3622 23.1605 90.767 24.0341H90.9375C91.3565 23.1889 91.9851 22.5178 92.8232 22.0206C93.6612 21.5163 94.6662 21.2642 95.8381 21.2642C97.3011 21.2642 98.4979 21.7223 99.4283 22.6385C100.359 23.5476 100.824 24.9645 100.824 26.8892V37.8409H98.3097V26.8892C98.3097 25.6818 97.9794 24.8189 97.3189 24.3004C96.6584 23.782 95.8807 23.5227 94.9858 23.5227C93.8352 23.5227 92.9439 23.8707 92.3118 24.5668C91.6797 25.2557 91.3636 26.1293 91.3636 27.1875V37.8409H88.8068V26.6335C88.8068 25.7031 88.505 24.9538 87.9013 24.3857C87.2976 23.8104 86.5199 23.5227 85.5682 23.5227C84.9148 23.5227 84.304 23.6967 83.7358 24.0447C83.1747 24.3928 82.7202 24.8757 82.3722 25.4936C82.0312 26.1044 81.8608 26.8111 81.8608 27.6136V37.8409H79.3466Z" fill="black"/>
<path d="M110.236 38.2244C109.199 38.2244 108.258 38.0291 107.413 37.6385C106.568 37.2408 105.897 36.669 105.4 35.9233C104.902 35.1705 104.654 34.2614 104.654 33.196C104.654 32.2585 104.838 31.4986 105.208 30.9162C105.577 30.3267 106.071 29.8651 106.689 29.5312C107.306 29.1974 107.988 28.9489 108.734 28.7855C109.487 28.6151 110.243 28.4801 111.003 28.3807C111.998 28.2528 112.804 28.157 113.422 28.093C114.047 28.022 114.501 27.9048 114.785 27.7415C115.076 27.5781 115.222 27.294 115.222 26.8892V26.804C115.222 25.7528 114.934 24.9361 114.359 24.3537C113.791 23.7713 112.928 23.4801 111.77 23.4801C110.57 23.4801 109.629 23.7429 108.947 24.2685C108.265 24.794 107.786 25.3551 107.509 25.9517L105.123 25.0994C105.549 24.1051 106.117 23.331 106.827 22.777C107.544 22.2159 108.326 21.8253 109.171 21.6051C110.023 21.3778 110.861 21.2642 111.685 21.2642C112.211 21.2642 112.814 21.3281 113.496 21.456C114.185 21.5767 114.849 21.8288 115.488 22.2124C116.135 22.5959 116.671 23.1747 117.097 23.9489C117.523 24.723 117.736 25.7599 117.736 27.0597V37.8409H115.222V35.625H115.094C114.924 35.9801 114.64 36.3601 114.242 36.7649C113.844 37.1697 113.315 37.5142 112.654 37.7983C111.994 38.0824 111.188 38.2244 110.236 38.2244ZM110.62 35.9659C111.614 35.9659 112.452 35.7706 113.134 35.38C113.823 34.9893 114.341 34.4851 114.689 33.8672C115.044 33.2493 115.222 32.5994 115.222 31.9176V29.6165C115.115 29.7443 114.881 29.8615 114.519 29.968C114.164 30.0675 113.752 30.1562 113.283 30.2344C112.821 30.3054 112.37 30.3693 111.93 30.4261C111.497 30.4759 111.145 30.5185 110.875 30.554C110.222 30.6392 109.611 30.7777 109.043 30.9695C108.482 31.1541 108.027 31.4347 107.679 31.8111C107.338 32.1804 107.168 32.6847 107.168 33.3239C107.168 34.1974 107.491 34.858 108.137 35.3054C108.791 35.7457 109.618 35.9659 110.62 35.9659Z" fill="black"/>
<path d="M129.442 21.4773V23.608H120.961V21.4773H129.442ZM123.433 17.5568H125.947V33.1534C125.947 33.8636 126.05 34.3963 126.256 34.7514C126.469 35.0994 126.739 35.3338 127.066 35.4545C127.4 35.5682 127.751 35.625 128.121 35.625C128.398 35.625 128.625 35.6108 128.802 35.5824C128.98 35.5469 129.122 35.5185 129.229 35.4972L129.74 37.7557C129.569 37.8196 129.331 37.8835 129.026 37.9474C128.721 38.0185 128.334 38.054 127.865 38.054C127.155 38.054 126.459 37.9013 125.777 37.5959C125.102 37.2905 124.541 36.8253 124.094 36.2003C123.653 35.5753 123.433 34.7869 123.433 33.8352V17.5568Z" fill="black"/>
<path d="M133.224 37.8409V21.4773H135.738V37.8409H133.224ZM134.502 18.75C134.012 18.75 133.589 18.5831 133.234 18.2493C132.886 17.9155 132.712 17.5142 132.712 17.0455C132.712 16.5767 132.886 16.1754 133.234 15.8416C133.589 15.5078 134.012 15.3409 134.502 15.3409C134.992 15.3409 135.411 15.5078 135.759 15.8416C136.114 16.1754 136.292 16.5767 136.292 17.0455C136.292 17.5142 136.114 17.9155 135.759 18.2493C135.411 18.5831 134.992 18.75 134.502 18.75Z" fill="black"/>
<path d="M146.99 38.1818C145.513 38.1818 144.217 37.8303 143.102 37.1271C141.994 36.424 141.127 35.4403 140.502 34.1761C139.885 32.9119 139.576 31.4347 139.576 29.7443C139.576 28.0398 139.885 26.5518 140.502 25.2805C141.127 24.0092 141.994 23.022 143.102 22.3189C144.217 21.6158 145.513 21.2642 146.99 21.2642C148.468 21.2642 149.76 21.6158 150.868 22.3189C151.983 23.022 152.85 24.0092 153.468 25.2805C154.093 26.5518 154.405 28.0398 154.405 29.7443C154.405 31.4347 154.093 32.9119 153.468 34.1761C152.85 35.4403 151.983 36.424 150.868 37.1271C149.76 37.8303 148.468 38.1818 146.99 38.1818ZM146.99 35.9233C148.113 35.9233 149.036 35.6357 149.76 35.0604C150.485 34.4851 151.021 33.7287 151.369 32.7912C151.717 31.8537 151.891 30.8381 151.891 29.7443C151.891 28.6506 151.717 27.6314 151.369 26.6868C151.021 25.7422 150.485 24.9787 149.76 24.3963C149.036 23.8139 148.113 23.5227 146.99 23.5227C145.868 23.5227 144.945 23.8139 144.221 24.3963C143.496 24.9787 142.96 25.7422 142.612 26.6868C142.264 27.6314 142.09 28.6506 142.09 29.7443C142.09 30.8381 142.264 31.8537 142.612 32.7912C142.96 33.7287 143.496 34.4851 144.221 35.0604C144.945 35.6357 145.868 35.9233 146.99 35.9233Z" fill="black"/>
<path d="M160.757 27.9972V37.8409H158.243V21.4773H160.672V24.0341H160.885C161.269 23.2031 161.851 22.5355 162.632 22.0313C163.414 21.5199 164.422 21.2642 165.658 21.2642C166.766 21.2642 167.735 21.4915 168.566 21.946C169.397 22.3935 170.044 23.0753 170.505 23.9915C170.967 24.9006 171.198 26.0511 171.198 27.4432V37.8409H168.683V27.6136C168.683 26.3281 168.35 25.3267 167.682 24.6094C167.014 23.8849 166.098 23.5227 164.933 23.5227C164.131 23.5227 163.414 23.6967 162.781 24.0447C162.156 24.3928 161.663 24.9006 161.301 25.5682C160.938 26.2358 160.757 27.0455 160.757 27.9972Z" fill="black"/>
<path d="M191.857 16.0227V37.8409H189.215V18.7926H189.087L183.761 22.3295V19.6449L189.215 16.0227H191.857Z" fill="black"/>
<path d="M370.403 25.4404V27.7842H360.857V25.4404H370.403Z" fill="black"/>
<path d="M384.202 25.4404V27.7842H374.656V25.4404H384.202Z" fill="black"/>
</svg>
