<svg width="53" height="53" viewBox="0 0 53 53" fill="none" xmlns="http://www.w3.org/2000/svg">
<path d="M6.62501 14.3542V14.3542C6.62501 11.9886 6.62501 10.8058 7.25495 9.99409C7.40897 9.79562 7.58731 9.61728 7.78578 9.46327C8.59752 8.83333 9.78029 8.83333 12.1458 8.83333L43.1667 8.83333C43.6381 8.83333 43.8738 8.83333 44.0202 8.97978C44.1667 9.12622 44.1667 9.36193 44.1667 9.83333V13.875C44.1667 16.7034 44.1667 18.1176 43.288 18.9963C42.4093 19.875 40.9951 19.875 38.1667 19.875L33.125 19.875M6.62501 14.3542V14.3542C6.62501 16.7197 6.62501 17.9025 7.25495 18.7142C7.40897 18.9127 7.58731 19.091 7.78578 19.2451C8.59752 19.875 9.78029 19.875 12.1458 19.875L44.375 19.875C45.3178 19.875 45.7892 19.875 46.0821 20.1679C46.375 20.4608 46.375 20.9322 46.375 21.875L46.375 28.7083M6.62501 14.3542L6.62501 42.375C6.62501 44.2606 6.62501 45.2034 7.2108 45.7892C7.79659 46.375 8.7394 46.375 10.625 46.375L44.375 46.375C45.3178 46.375 45.7892 46.375 46.0821 46.0821C46.375 45.7892 46.375 45.3178 46.375 44.375L46.375 37.5417M46.375 37.5417H35.125C34.1822 37.5417 33.7108 37.5417 33.4179 37.2488C33.125 36.9559 33.125 36.4845 33.125 35.5417V30.7083C33.125 29.7655 33.125 29.2941 33.4179 29.0012C33.7108 28.7083 34.1822 28.7083 35.125 28.7083L46.375 28.7083M46.375 37.5417L46.375 28.7083" stroke="white" stroke-width="3"/>
</svg>
