<svg width="1161" height="53" viewBox="0 0 1161 53" fill="none" xmlns="http://www.w3.org/2000/svg">
<path d="M21.733 36.8182H15V15H22.0313C24.1477 15 25.9588 15.4368 27.4645 16.3104C28.9702 17.1768 30.1243 18.4233 30.9268 20.0497C31.7294 21.669 32.1307 23.608 32.1307 25.8665C32.1307 28.1392 31.7259 30.0959 30.9162 31.7365C30.1065 33.37 28.9276 34.6271 27.3793 35.5078C25.831 36.3814 23.9489 36.8182 21.733 36.8182ZM17.642 34.4744H21.5625C23.3665 34.4744 24.8615 34.1264 26.0476 33.4304C27.2337 32.7344 28.1179 31.7436 28.7003 30.4581C29.2827 29.1726 29.5739 27.642 29.5739 25.8665C29.5739 24.1051 29.2862 22.5888 28.7109 21.3175C28.1357 20.0391 27.2763 19.0589 26.1328 18.3771C24.9893 17.6882 23.5653 17.3438 21.8608 17.3438H17.642V34.4744Z" fill="black"/>
<path d="M41.0369 37.2017C40 37.2017 39.0589 37.0064 38.2138 36.6158C37.3686 36.218 36.6974 35.6463 36.2003 34.9006C35.7031 34.1477 35.4545 33.2386 35.4545 32.1733C35.4545 31.2358 35.6392 30.4759 36.0085 29.8935C36.3778 29.304 36.8714 28.8423 37.4893 28.5085C38.1072 28.1747 38.7891 27.9261 39.5348 27.7628C40.2876 27.5923 41.044 27.4574 41.804 27.358C42.7983 27.2301 43.6044 27.1342 44.2223 27.0703C44.8473 26.9993 45.3018 26.8821 45.5859 26.7188C45.8771 26.5554 46.0227 26.2713 46.0227 25.8665V25.7812C46.0227 24.7301 45.7351 23.9134 45.1598 23.331C44.5916 22.7486 43.7287 22.4574 42.571 22.4574C41.3707 22.4574 40.4297 22.7202 39.7479 23.2457C39.0661 23.7713 38.5866 24.3324 38.3097 24.929L35.9233 24.0767C36.3494 23.0824 36.9176 22.3082 37.6278 21.7543C38.3452 21.1932 39.1264 20.8026 39.9716 20.5824C40.8239 20.3551 41.6619 20.2415 42.4858 20.2415C43.0114 20.2415 43.6151 20.3054 44.2969 20.4332C44.9858 20.554 45.6499 20.8061 46.2891 21.1896C46.9354 21.5732 47.4716 22.152 47.8977 22.9261C48.3239 23.7003 48.5369 24.7372 48.5369 26.0369V36.8182H46.0227V34.6023H45.8949C45.7244 34.9574 45.4403 35.3374 45.0426 35.7422C44.6449 36.147 44.1158 36.4915 43.4553 36.7756C42.7947 37.0597 41.9886 37.2017 41.0369 37.2017ZM41.4205 34.9432C42.4148 34.9432 43.2528 34.7479 43.9347 34.3572C44.6236 33.9666 45.142 33.4624 45.4901 32.8445C45.8452 32.2266 46.0227 31.5767 46.0227 30.8949V28.5938C45.9162 28.7216 45.6818 28.8388 45.3196 28.9453C44.9645 29.0447 44.5526 29.1335 44.0838 29.2116C43.6222 29.2827 43.1712 29.3466 42.7308 29.4034C42.2976 29.4531 41.946 29.4957 41.6761 29.5312C41.0227 29.6165 40.4119 29.755 39.8438 29.9467C39.2827 30.1314 38.8281 30.4119 38.4801 30.7884C38.1392 31.1577 37.9688 31.6619 37.9688 32.3011C37.9688 33.1747 38.2919 33.8352 38.9382 34.2827C39.5916 34.723 40.419 34.9432 41.4205 34.9432Z" fill="black"/>
<path d="M60.2424 20.4545V22.5852H51.7623V20.4545H60.2424ZM54.2338 16.5341H56.748V32.1307C56.748 32.8409 56.851 33.3736 57.057 33.7287C57.2701 34.0767 57.54 34.3111 57.8667 34.4318C58.2005 34.5455 58.552 34.6023 58.9213 34.6023C59.1983 34.6023 59.4256 34.5881 59.6032 34.5597C59.7807 34.5241 59.9228 34.4957 60.0293 34.4744L60.5407 36.733C60.3702 36.7969 60.1323 36.8608 59.8269 36.9247C59.5215 36.9957 59.1344 37.0312 58.6657 37.0312C57.9554 37.0312 57.2594 36.8786 56.5776 36.5732C55.9029 36.2678 55.3418 35.8026 54.8944 35.1776C54.454 34.5526 54.2338 33.7642 54.2338 32.8125V16.5341Z" fill="black"/>
<path d="M68.8397 37.2017C67.8027 37.2017 66.8617 37.0064 66.0165 36.6158C65.1713 36.218 64.5002 35.6463 64.003 34.9006C63.5059 34.1477 63.2573 33.2386 63.2573 32.1733C63.2573 31.2358 63.4419 30.4759 63.8113 29.8935C64.1806 29.304 64.6742 28.8423 65.2921 28.5085C65.91 28.1747 66.5918 27.9261 67.3375 27.7628C68.0904 27.5923 68.8468 27.4574 69.6067 27.358C70.601 27.2301 71.4071 27.1342 72.025 27.0703C72.65 26.9993 73.1046 26.8821 73.3887 26.7188C73.6799 26.5554 73.8255 26.2713 73.8255 25.8665V25.7812C73.8255 24.7301 73.5378 23.9134 72.9625 23.331C72.3944 22.7486 71.5314 22.4574 70.3738 22.4574C69.1735 22.4574 68.2324 22.7202 67.5506 23.2457C66.8688 23.7713 66.3894 24.3324 66.1124 24.929L63.726 24.0767C64.1522 23.0824 64.7203 22.3082 65.4306 21.7543C66.1479 21.1932 66.9292 20.8026 67.7743 20.5824C68.6266 20.3551 69.4647 20.2415 70.2885 20.2415C70.8141 20.2415 71.4178 20.3054 72.0996 20.4332C72.7885 20.554 73.4526 20.8061 74.0918 21.1896C74.7381 21.5732 75.2743 22.152 75.7005 22.9261C76.1266 23.7003 76.3397 24.7372 76.3397 26.0369V36.8182H73.8255V34.6023H73.6976C73.5272 34.9574 73.2431 35.3374 72.8453 35.7422C72.4476 36.147 71.9185 36.4915 71.258 36.7756C70.5975 37.0597 69.7914 37.2017 68.8397 37.2017ZM69.2232 34.9432C70.2175 34.9432 71.0556 34.7479 71.7374 34.3572C72.4263 33.9666 72.9448 33.4624 73.2928 32.8445C73.6479 32.2266 73.8255 31.5767 73.8255 30.8949V28.5938C73.7189 28.7216 73.4846 28.8388 73.1223 28.9453C72.7672 29.0447 72.3553 29.1335 71.8865 29.2116C71.4249 29.2827 70.9739 29.3466 70.5336 29.4034C70.1003 29.4531 69.7488 29.4957 69.4789 29.5312C68.8255 29.6165 68.2147 29.755 67.6465 29.9467C67.0854 30.1314 66.6309 30.4119 66.2828 30.7884C65.9419 31.1577 65.7715 31.6619 65.7715 32.3011C65.7715 33.1747 66.0946 33.8352 66.7409 34.2827C67.3944 34.723 68.2218 34.9432 69.2232 34.9432Z" fill="black"/>
<path d="M90.6019 36.8182H87.832L95.8434 15H98.5707L106.582 36.8182H103.812L97.2923 18.4517H97.1218L90.6019 36.8182ZM91.6246 28.2955H102.789V30.6392H91.6246V28.2955Z" fill="black"/>
<path d="M116.287 37.1591C114.753 37.1591 113.432 36.7969 112.324 36.0724C111.216 35.348 110.364 34.3501 109.767 33.0788C109.171 31.8075 108.873 30.3551 108.873 28.7216C108.873 27.0597 109.178 25.593 109.789 24.3217C110.407 23.0433 111.266 22.0455 112.367 21.3281C113.475 20.6037 114.767 20.2415 116.245 20.2415C117.395 20.2415 118.432 20.4545 119.355 20.8807C120.279 21.3068 121.035 21.9034 121.625 22.6705C122.214 23.4375 122.58 24.3324 122.722 25.3551H120.208C120.016 24.6094 119.59 23.9489 118.929 23.3736C118.276 22.7912 117.395 22.5 116.287 22.5C115.307 22.5 114.448 22.7557 113.709 23.267C112.978 23.7713 112.406 24.4851 111.994 25.4084C111.589 26.3246 111.387 27.4006 111.387 28.6364C111.387 29.9006 111.586 31.0014 111.983 31.9389C112.388 32.8764 112.956 33.6044 113.688 34.1229C114.426 34.6413 115.293 34.9006 116.287 34.9006C116.941 34.9006 117.534 34.7869 118.066 34.5597C118.599 34.3324 119.05 34.0057 119.419 33.5795C119.789 33.1534 120.051 32.642 120.208 32.0455H122.722C122.58 33.0114 122.228 33.8814 121.667 34.6555C121.113 35.4226 120.378 36.0334 119.462 36.4879C118.553 36.9354 117.495 37.1591 116.287 37.1591Z" fill="black"/>
<path d="M133.045 37.1591C131.511 37.1591 130.19 36.7969 129.082 36.0724C127.974 35.348 127.122 34.3501 126.525 33.0788C125.929 31.8075 125.63 30.3551 125.63 28.7216C125.63 27.0597 125.936 25.593 126.547 24.3217C127.164 23.0433 128.024 22.0455 129.125 21.3281C130.233 20.6037 131.525 20.2415 133.002 20.2415C134.153 20.2415 135.19 20.4545 136.113 20.8807C137.037 21.3068 137.793 21.9034 138.382 22.6705C138.972 23.4375 139.338 24.3324 139.48 25.3551H136.966C136.774 24.6094 136.348 23.9489 135.687 23.3736C135.034 22.7912 134.153 22.5 133.045 22.5C132.065 22.5 131.206 22.7557 130.467 23.267C129.735 23.7713 129.164 24.4851 128.752 25.4084C128.347 26.3246 128.145 27.4006 128.145 28.6364C128.145 29.9006 128.343 31.0014 128.741 31.9389C129.146 32.8764 129.714 33.6044 130.446 34.1229C131.184 34.6413 132.051 34.9006 133.045 34.9006C133.699 34.9006 134.292 34.7869 134.824 34.5597C135.357 34.3324 135.808 34.0057 136.177 33.5795C136.547 33.1534 136.809 32.642 136.966 32.0455H139.48C139.338 33.0114 138.986 33.8814 138.425 34.6555C137.871 35.4226 137.136 36.0334 136.22 36.4879C135.311 36.9354 134.252 37.1591 133.045 37.1591Z" fill="black"/>
<path d="M149.803 37.1591C148.326 37.1591 147.029 36.8075 145.914 36.1044C144.806 35.4013 143.94 34.4176 143.315 33.1534C142.697 31.8892 142.388 30.4119 142.388 28.7216C142.388 27.017 142.697 25.5291 143.315 24.2578C143.94 22.9865 144.806 21.9993 145.914 21.2962C147.029 20.593 148.326 20.2415 149.803 20.2415C151.28 20.2415 152.573 20.593 153.681 21.2962C154.796 21.9993 155.662 22.9865 156.28 24.2578C156.905 25.5291 157.218 27.017 157.218 28.7216C157.218 30.4119 156.905 31.8892 156.28 33.1534C155.662 34.4176 154.796 35.4013 153.681 36.1044C152.573 36.8075 151.28 37.1591 149.803 37.1591ZM149.803 34.9006C150.925 34.9006 151.848 34.6129 152.573 34.0376C153.297 33.4624 153.833 32.706 154.181 31.7685C154.529 30.831 154.703 29.8153 154.703 28.7216C154.703 27.6278 154.529 26.6087 154.181 25.6641C153.833 24.7195 153.297 23.956 152.573 23.3736C151.848 22.7912 150.925 22.5 149.803 22.5C148.681 22.5 147.757 22.7912 147.033 23.3736C146.309 23.956 145.772 24.7195 145.424 25.6641C145.076 26.6087 144.902 27.6278 144.902 28.7216C144.902 29.8153 145.076 30.831 145.424 31.7685C145.772 32.706 146.309 33.4624 147.033 34.0376C147.757 34.6129 148.681 34.9006 149.803 34.9006Z" fill="black"/>
<path d="M171.368 30.1278V20.4545H173.882V36.8182H171.368V34.0483H171.198C170.814 34.8793 170.218 35.5859 169.408 36.1683C168.598 36.7436 167.575 37.0312 166.34 37.0312C165.317 37.0312 164.408 36.8075 163.612 36.3601C162.817 35.9055 162.192 35.2237 161.737 34.3146C161.283 33.3984 161.056 32.2443 161.056 30.8523V20.4545H163.57V30.6818C163.57 31.875 163.904 32.8267 164.571 33.5369C165.246 34.2472 166.105 34.6023 167.149 34.6023C167.774 34.6023 168.41 34.4425 169.056 34.1229C169.71 33.8033 170.257 33.3132 170.697 32.6527C171.144 31.9922 171.368 31.1506 171.368 30.1278Z" fill="black"/>
<path d="M181.001 26.9744V36.8182H178.487V20.4545H180.916V23.0114H181.129C181.513 22.1804 182.095 21.5128 182.876 21.0085C183.658 20.4972 184.666 20.2415 185.902 20.2415C187.01 20.2415 187.979 20.4688 188.81 20.9233C189.641 21.3707 190.288 22.0526 190.749 22.9688C191.211 23.8778 191.442 25.0284 191.442 26.4205V36.8182H188.928V26.5909C188.928 25.3054 188.594 24.304 187.926 23.5866C187.259 22.8622 186.342 22.5 185.178 22.5C184.375 22.5 183.658 22.674 183.026 23.022C182.401 23.37 181.907 23.8778 181.545 24.5455C181.183 25.2131 181.001 26.0227 181.001 26.9744Z" fill="black"/>
<path d="M203.153 20.4545V22.5852H194.672V20.4545H203.153ZM197.144 16.5341H199.658V32.1307C199.658 32.8409 199.761 33.3736 199.967 33.7287C200.18 34.0767 200.45 34.3111 200.777 34.4318C201.111 34.5455 201.462 34.6023 201.831 34.6023C202.108 34.6023 202.336 34.5881 202.513 34.5597C202.691 34.5241 202.833 34.4957 202.939 34.4744L203.451 36.733C203.28 36.7969 203.042 36.8608 202.737 36.9247C202.432 36.9957 202.045 37.0312 201.576 37.0312C200.866 37.0312 200.17 36.8786 199.488 36.5732C198.813 36.2678 198.252 35.8026 197.805 35.1776C197.364 34.5526 197.144 33.7642 197.144 32.8125V16.5341Z" fill="black"/>
<path d="M369.997 24.929V27.2727H360.451V24.929H369.997Z" fill="black"/>
<path d="M383.795 24.929V27.2727H374.25V24.929H383.795Z" fill="black"/>
</svg>
