<svg width="272" height="24" viewBox="0 0 272 24" fill="none" xmlns="http://www.w3.org/2000/svg">
<path d="M2.77217 22.8597H0L8.01796 1.02357H10.7475L18.7654 22.8597H15.9933L9.46801 4.47811H9.29742L2.77217 22.8597ZM3.79573 14.33H14.9697V16.6756H3.79573V14.33Z" fill="black"/>
<path d="M21.8255 22.8597V6.4826H24.2564V9.04153H24.4697C24.8109 8.16723 25.3618 7.4884 26.1223 7.00505C26.8829 6.51459 27.7963 6.26936 28.8625 6.26936C29.9429 6.26936 30.8421 6.51459 31.56 7.00505C32.2851 7.4884 32.8502 8.16723 33.2553 9.04153H33.4259C33.8453 8.19566 34.4744 7.52394 35.3131 7.02637C36.1519 6.5217 37.1577 6.26936 38.3305 6.26936C39.7948 6.26936 40.9925 6.72783 41.9237 7.64478C42.8548 8.55462 43.3204 9.97269 43.3204 11.899V22.8597H40.8041V11.899C40.8041 10.6906 40.4736 9.82697 39.8126 9.30808C39.1515 8.78919 38.3732 8.52974 37.4775 8.52974C36.326 8.52974 35.434 8.87804 34.8013 9.57463C34.1687 10.2641 33.8524 11.1384 33.8524 12.1975V22.8597H31.2935V11.6431C31.2935 10.7119 30.9914 9.96203 30.3872 9.39338C29.783 8.81762 29.0047 8.52974 28.0522 8.52974C27.3982 8.52974 26.7869 8.70389 26.2183 9.05219C25.6567 9.40049 25.2018 9.88384 24.8535 10.5022C24.5123 11.1135 24.3417 11.8208 24.3417 12.624V22.8597H21.8255Z" fill="black"/>
<path d="M54.5743 23.2009C53.0959 23.2009 51.7986 22.849 50.6827 22.1453C49.5738 21.4416 48.7066 20.4572 48.0811 19.1919C47.4627 17.9267 47.1535 16.4482 47.1535 14.7565C47.1535 13.0505 47.4627 11.5614 48.0811 10.289C48.7066 9.01665 49.5738 8.02862 50.6827 7.32492C51.7986 6.62121 53.0959 6.26936 54.5743 6.26936C56.0528 6.26936 57.3465 6.62121 58.4554 7.32492C59.5714 8.02862 60.4385 9.01665 61.0569 10.289C61.6825 11.5614 61.9952 13.0505 61.9952 14.7565C61.9952 16.4482 61.6825 17.9267 61.0569 19.1919C60.4385 20.4572 59.5714 21.4416 58.4554 22.1453C57.3465 22.849 56.0528 23.2009 54.5743 23.2009ZM54.5743 20.9405C55.6974 20.9405 56.6215 20.6526 57.3465 20.0769C58.0715 19.5011 58.6082 18.7441 58.9565 17.8058C59.3048 16.8676 59.4789 15.8511 59.4789 14.7565C59.4789 13.6618 59.3048 12.6418 58.9565 11.6964C58.6082 10.751 58.0715 9.9869 57.3465 9.40404C56.6215 8.82117 55.6974 8.52974 54.5743 8.52974C53.4513 8.52974 52.5272 8.82117 51.8022 9.40404C51.0772 9.9869 50.5405 10.751 50.1922 11.6964C49.8439 12.6418 49.6697 13.6618 49.6697 14.7565C49.6697 15.8511 49.8439 16.8676 50.1922 17.8058C50.5405 18.7441 51.0772 19.5011 51.8022 20.0769C52.5272 20.6526 53.4513 20.9405 54.5743 20.9405Z" fill="black"/>
<path d="M76.1573 16.1639V6.4826H78.6735V22.8597H76.1573V20.0875H75.9867C75.6028 20.9192 75.0057 21.6264 74.1954 22.2093C73.3851 22.7851 72.3615 23.0729 71.1247 23.0729C70.1011 23.0729 69.1913 22.849 68.3952 22.4012C67.5991 21.9463 66.9736 21.2639 66.5186 20.3541C66.0637 19.4371 65.8363 18.2821 65.8363 16.8889V6.4826H68.3525V16.7183C68.3525 17.9125 68.6866 18.8649 69.3548 19.5758C70.0301 20.2866 70.8901 20.642 71.935 20.642C72.5606 20.642 73.1967 20.482 73.8436 20.1622C74.4975 19.8423 75.0448 19.3518 75.4855 18.6908C75.9333 18.0297 76.1573 17.1874 76.1573 16.1639Z" fill="black"/>
<path d="M85.7985 13.0079V22.8597H83.2823V6.4826H85.7132V9.04153H85.9265C86.3103 8.20988 86.8932 7.54171 87.6751 7.03704C88.457 6.52525 89.4663 6.26936 90.7031 6.26936C91.812 6.26936 92.7823 6.49682 93.6139 6.95174C94.4455 7.39955 95.0924 8.08193 95.5544 8.99888C96.0164 9.90872 96.2475 11.0602 96.2475 12.4534V22.8597H93.7312V12.624C93.7312 11.3374 93.3971 10.3352 92.7289 9.61728C92.0608 8.89225 91.1438 8.52974 89.9781 8.52974C89.1749 8.52974 88.457 8.70389 87.8243 9.05219C87.1988 9.40049 86.7048 9.90872 86.3423 10.5769C85.9798 11.245 85.7985 12.0554 85.7985 13.0079Z" fill="black"/>
<path d="M107.968 6.4826V8.61504H99.4808V6.4826H107.968ZM101.954 2.55892H104.471V18.1683C104.471 18.8792 104.574 19.4123 104.78 19.7677C104.993 20.116 105.263 20.3505 105.59 20.4714C105.924 20.5851 106.276 20.642 106.646 20.642C106.923 20.642 107.15 20.6278 107.328 20.5993C107.506 20.5638 107.648 20.5354 107.755 20.514L108.266 22.7744C108.096 22.8384 107.858 22.9024 107.552 22.9663C107.246 23.0374 106.859 23.0729 106.39 23.0729C105.679 23.0729 104.982 22.9201 104.3 22.6145C103.625 22.3088 103.063 21.8432 102.615 21.2177C102.175 20.5922 101.954 19.8032 101.954 18.8507V2.55892Z" fill="black"/>
<path d="M127.32 6.4826V8.61504H118.833V6.4826H127.32ZM121.306 2.55892H123.823V18.1683C123.823 18.8792 123.926 19.4123 124.132 19.7677C124.345 20.116 124.615 20.3505 124.942 20.4714C125.276 20.5851 125.628 20.642 125.998 20.642C126.275 20.642 126.502 20.6278 126.68 20.5993C126.858 20.5638 127 20.5354 127.106 20.514L127.618 22.7744C127.448 22.8384 127.21 22.9024 126.904 22.9663C126.598 23.0374 126.211 23.0729 125.742 23.0729C125.031 23.0729 124.334 22.9201 123.652 22.6145C122.977 22.3088 122.415 21.8432 121.967 21.2177C121.527 20.5922 121.306 19.8032 121.306 18.8507V2.55892Z" fill="black"/>
<path d="M137.582 23.2009C136.104 23.2009 134.806 22.849 133.69 22.1453C132.581 21.4416 131.714 20.4572 131.089 19.1919C130.47 17.9267 130.161 16.4482 130.161 14.7565C130.161 13.0505 130.47 11.5614 131.089 10.289C131.714 9.01665 132.581 8.02862 133.69 7.32492C134.806 6.62121 136.104 6.26936 137.582 6.26936C139.061 6.26936 140.354 6.62121 141.463 7.32492C142.579 8.02862 143.446 9.01665 144.065 10.289C144.69 11.5614 145.003 13.0505 145.003 14.7565C145.003 16.4482 144.69 17.9267 144.065 19.1919C143.446 20.4572 142.579 21.4416 141.463 22.1453C140.354 22.849 139.061 23.2009 137.582 23.2009ZM137.582 20.9405C138.705 20.9405 139.629 20.6526 140.354 20.0769C141.079 19.5011 141.616 18.7441 141.964 17.8058C142.313 16.8676 142.487 15.8511 142.487 14.7565C142.487 13.6618 142.313 12.6418 141.964 11.6964C141.616 10.751 141.079 9.9869 140.354 9.40404C139.629 8.82117 138.705 8.52974 137.582 8.52974C136.459 8.52974 135.535 8.82117 134.81 9.40404C134.085 9.9869 133.548 10.751 133.2 11.6964C132.852 12.6418 132.677 13.6618 132.677 14.7565C132.677 15.8511 132.852 16.8676 133.2 17.8058C133.548 18.7441 134.085 19.5011 134.81 20.0769C135.535 20.6526 136.459 20.9405 137.582 20.9405Z" fill="black"/>
<path d="M156.435 3.36925V1.02357H172.813V3.36925H165.946V22.8597H163.302V3.36925H156.435Z" fill="black"/>
<path d="M174.852 22.8597V6.4826H177.283V8.95623H177.453C177.752 8.1459 178.292 7.4884 179.074 6.98372C179.856 6.47905 180.737 6.22671 181.718 6.22671C181.903 6.22671 182.134 6.23026 182.411 6.23737C182.688 6.24448 182.898 6.25514 183.04 6.26936V8.82828C182.955 8.80696 182.759 8.77497 182.454 8.73232C182.155 8.68257 181.839 8.65769 181.505 8.65769C180.709 8.65769 179.998 8.82473 179.372 9.15881C178.754 9.48578 178.264 9.9407 177.901 10.5236C177.546 11.0993 177.368 11.7568 177.368 12.4961V22.8597H174.852Z" fill="black"/>
<path d="M190.842 23.2435C189.804 23.2435 188.863 23.0481 188.017 22.6571C187.171 22.2591 186.499 21.6869 186.002 20.9405C185.504 20.1871 185.255 19.2772 185.255 18.211C185.255 17.2727 185.44 16.5122 185.81 15.9293C186.179 15.3393 186.673 14.8773 187.292 14.5432C187.91 14.2091 188.593 13.9603 189.339 13.7969C190.092 13.6263 190.849 13.4912 191.61 13.3917C192.605 13.2637 193.412 13.1678 194.03 13.1038C194.656 13.0327 195.111 12.9154 195.395 12.752C195.686 12.5885 195.832 12.3042 195.832 11.899V11.8137C195.832 10.7617 195.544 9.94426 194.969 9.36139C194.4 8.77853 193.536 8.48709 192.378 8.48709C191.176 8.48709 190.235 8.75009 189.552 9.27609C188.87 9.80209 188.39 10.3636 188.113 10.9607L185.724 10.1077C186.151 9.11261 186.72 8.33782 187.43 7.78339C188.148 7.22185 188.93 6.8309 189.776 6.61055C190.629 6.38309 191.468 6.26936 192.292 6.26936C192.818 6.26936 193.423 6.33333 194.105 6.46128C194.794 6.58212 195.459 6.83445 196.099 7.21829C196.746 7.60213 197.282 8.18144 197.709 8.95623C198.135 9.73101 198.348 10.7688 198.348 12.0696V22.8597H195.832V20.642H195.704C195.534 20.9974 195.249 21.3777 194.851 21.7828C194.453 22.188 193.924 22.5327 193.263 22.8171C192.602 23.1014 191.795 23.2435 190.842 23.2435ZM191.226 20.9832C192.221 20.9832 193.06 20.7877 193.742 20.3967C194.432 20.0058 194.951 19.5011 195.299 18.8827C195.654 18.2643 195.832 17.6139 195.832 16.9315V14.6285C195.726 14.7565 195.491 14.8737 195.128 14.9804C194.773 15.0799 194.361 15.1687 193.892 15.2469C193.43 15.318 192.978 15.382 192.538 15.4388C192.104 15.4886 191.752 15.5312 191.482 15.5668C190.828 15.6521 190.217 15.7907 189.648 15.9826C189.087 16.1674 188.632 16.4482 188.283 16.8249C187.942 17.1945 187.772 17.6992 187.772 18.3389C187.772 19.2132 188.095 19.8743 188.742 20.3221C189.396 20.7628 190.224 20.9832 191.226 20.9832Z" fill="black"/>
<path d="M205.457 13.0079V22.8597H202.941V6.4826H205.372V9.04153H205.585C205.969 8.20988 206.552 7.54171 207.334 7.03704C208.116 6.52525 209.125 6.26936 210.362 6.26936C211.471 6.26936 212.441 6.49682 213.273 6.95174C214.104 7.39955 214.751 8.08193 215.213 8.99888C215.675 9.90872 215.906 11.0602 215.906 12.4534V22.8597H213.39V12.624C213.39 11.3374 213.056 10.3352 212.388 9.61728C211.72 8.89225 210.803 8.52974 209.637 8.52974C208.834 8.52974 208.116 8.70389 207.483 9.05219C206.858 9.40049 206.364 9.90872 206.001 10.5769C205.639 11.245 205.457 12.0554 205.457 13.0079Z" fill="black"/>
<path d="M232.105 10.1504L229.845 10.7901C229.702 10.4134 229.493 10.0473 229.215 9.69192C228.945 9.3294 228.576 9.03086 228.107 8.79629C227.637 8.56173 227.037 8.44444 226.305 8.44444C225.302 8.44444 224.467 8.67546 223.799 9.13749C223.138 9.5924 222.807 10.1717 222.807 10.8754C222.807 11.5009 223.035 11.9949 223.49 12.3575C223.945 12.72 224.656 13.0221 225.622 13.2637L228.053 13.8608C229.518 14.2162 230.609 14.76 231.327 15.4921C232.044 16.2172 232.403 17.1519 232.403 18.2963C232.403 19.2346 232.133 20.0733 231.593 20.8126C231.06 21.5518 230.314 22.1347 229.354 22.5612C228.394 22.9876 227.278 23.2009 226.006 23.2009C224.336 23.2009 222.953 22.8384 221.859 22.1134C220.764 21.3883 220.071 20.3292 219.779 18.936L222.168 18.3389C222.395 19.2203 222.825 19.8814 223.458 20.3221C224.098 20.7628 224.933 20.9832 225.963 20.9832C227.136 20.9832 228.067 20.7344 228.757 20.2368C229.454 19.7321 229.802 19.1279 229.802 18.4242C229.802 17.8556 229.603 17.3793 229.205 16.9955C228.807 16.6046 228.195 16.3131 227.371 16.1212L224.641 15.4815C223.142 15.1261 222.04 14.5752 221.336 13.8288C220.639 13.0754 220.291 12.1336 220.291 11.0034C220.291 10.0793 220.551 9.26188 221.07 8.55107C221.596 7.84025 222.31 7.28227 223.213 6.8771C224.122 6.47194 225.153 6.26936 226.305 6.26936C227.925 6.26936 229.198 6.62477 230.122 7.33558C231.053 8.04639 231.714 8.98466 232.105 10.1504Z" fill="black"/>
<path d="M243.484 6.4826V8.61504H234.656V6.4826H243.484ZM237.3 22.8597V4.22222C237.3 3.28395 237.52 2.50206 237.961 1.87654C238.402 1.25103 238.974 0.781893 239.678 0.469136C240.381 0.156379 241.124 0 241.906 0C242.525 0 243.029 0.0497569 243.42 0.149271C243.811 0.248784 244.103 0.34119 244.294 0.426487L243.569 2.60157C243.441 2.55892 243.264 2.50561 243.036 2.44164C242.816 2.37767 242.525 2.34568 242.162 2.34568C241.33 2.34568 240.73 2.55537 240.36 2.97475C239.998 3.39413 239.816 4.00898 239.816 4.8193V22.8597H237.3Z" fill="black"/>
<path d="M253.203 23.2009C251.625 23.2009 250.263 22.8526 249.119 22.156C247.982 21.4523 247.104 20.4714 246.486 19.2132C245.874 17.948 245.569 16.4766 245.569 14.7991C245.569 13.1216 245.874 11.6431 246.486 10.3636C247.104 9.07707 247.964 8.07482 249.066 7.3569C250.175 6.63187 251.468 6.26936 252.947 6.26936C253.8 6.26936 254.642 6.41152 255.474 6.69585C256.305 6.98017 257.062 7.4422 257.745 8.08193C258.427 8.71455 258.971 9.55331 259.376 10.5982C259.781 11.6431 259.984 12.9297 259.984 14.4579V15.5241H247.36V13.349H257.425C257.425 12.425 257.24 11.6004 256.87 10.8754C256.508 10.1504 255.989 9.57819 255.314 9.15881C254.646 8.73943 253.857 8.52974 252.947 8.52974C251.945 8.52974 251.077 8.77853 250.345 9.27609C249.62 9.76655 249.062 10.4063 248.671 11.1953C248.28 11.9843 248.085 12.8302 248.085 13.7329V15.1829C248.085 16.4198 248.298 17.4682 248.725 18.3283C249.158 19.1813 249.759 19.8316 250.526 20.2795C251.294 20.7202 252.186 20.9405 253.203 20.9405C253.864 20.9405 254.461 20.8481 254.994 20.6633C255.534 20.4714 256 20.1871 256.391 19.8103C256.782 19.4265 257.084 18.9502 257.297 18.3816L259.728 19.064C259.472 19.8885 259.042 20.6135 258.438 21.2391C257.834 21.8575 257.087 22.3408 256.199 22.6891C255.31 23.0303 254.312 23.2009 253.203 23.2009Z" fill="black"/>
<path d="M263.812 22.8597V6.4826H266.242V8.95623H266.413C266.712 8.1459 267.252 7.4884 268.034 6.98372C268.816 6.47905 269.697 6.22671 270.678 6.22671C270.863 6.22671 271.094 6.23026 271.371 6.23737C271.648 6.24448 271.858 6.25514 272 6.26936V8.82828C271.915 8.80696 271.719 8.77497 271.414 8.73232C271.115 8.68257 270.799 8.65769 270.465 8.65769C269.669 8.65769 268.958 8.82473 268.332 9.15881C267.714 9.48578 267.223 9.9407 266.861 10.5236C266.506 11.0993 266.328 11.7568 266.328 12.4961V22.8597H263.812Z" fill="black"/>
</svg>
