<svg width="1225" height="27" viewBox="0 0 1225 27" fill="none" xmlns="http://www.w3.org/2000/svg">
<path d="M21.1577 22.8729L15 1.05469H19.2507L23.1818 17.0881H23.3842L27.5817 1.05469H31.4489L35.657 17.0987H35.8487L39.7798 1.05469H44.0305L37.8729 22.8729H33.9737L29.6058 7.56392H29.4354L25.0568 22.8729H21.1577Z" fill="black"/>
<path d="M49.6396 23.2031C48.6026 23.2031 47.6687 23.0185 46.8377 22.6491C46.0139 22.2727 45.3604 21.7188 44.8775 20.9872C44.4016 20.2557 44.1637 19.3537 44.1637 18.2812C44.1637 17.358 44.3342 16.5945 44.6751 15.9908C45.016 15.3871 45.4812 14.9041 46.0707 14.5419C46.6602 14.1797 47.3242 13.9062 48.0629 13.7216C48.8086 13.5298 49.5792 13.3913 50.3746 13.3061C51.3335 13.2067 52.1111 13.1179 52.7077 13.0398C53.3043 12.9545 53.7376 12.8267 54.0075 12.6562C54.2844 12.4787 54.4229 12.2053 54.4229 11.8359V11.772C54.4229 10.9695 54.185 10.348 53.7092 9.90767C53.2333 9.46733 52.5479 9.24716 51.6531 9.24716C50.7085 9.24716 49.9592 9.45312 49.4052 9.86506C48.8583 10.277 48.489 10.7635 48.2972 11.3246L44.6964 10.8132C44.9805 9.81889 45.4492 8.98793 46.1026 8.32031C46.756 7.6456 47.555 7.14134 48.4996 6.80753C49.4442 6.46662 50.4883 6.29617 51.6317 6.29617C52.4201 6.29617 53.2049 6.3885 53.9862 6.57315C54.7674 6.75781 55.4812 7.06321 56.1275 7.48935C56.7738 7.90838 57.2923 8.48011 57.6829 9.20455C58.0806 9.92898 58.2795 10.8345 58.2795 11.9212V22.8729H54.5721V20.625H54.4442C54.2099 21.0795 53.8796 21.5057 53.4535 21.9034C53.0344 22.294 52.5053 22.6101 51.8661 22.8516C51.234 23.0859 50.4918 23.2031 49.6396 23.2031ZM50.641 20.3693C51.4151 20.3693 52.0863 20.2166 52.6545 19.9112C53.2227 19.5987 53.6594 19.1868 53.9648 18.6754C54.2773 18.1641 54.4336 17.6065 54.4336 17.0028V15.0746C54.3129 15.174 54.1069 15.2663 53.8157 15.3516C53.5316 15.4368 53.212 15.5114 52.8569 15.5753C52.5018 15.6392 52.1502 15.696 51.8022 15.7457C51.4542 15.7955 51.1523 15.8381 50.8967 15.8736C50.3214 15.9517 49.8065 16.0795 49.3519 16.2571C48.8974 16.4347 48.5387 16.6832 48.2759 17.0028C48.0131 17.3153 47.8817 17.7202 47.8817 18.2173C47.8817 18.9276 48.141 19.4638 48.6594 19.826C49.1779 20.1882 49.8384 20.3693 50.641 20.3693Z" fill="black"/>
<path d="M66.0139 1.05469V22.8729H62.1573V1.05469H66.0139Z" fill="black"/>
<path d="M73.8361 1.05469V22.8729H69.9796V1.05469H73.8361Z" fill="black"/>
<path d="M85.0462 23.1925C83.4055 23.1925 81.9886 22.8516 80.7955 22.1697C79.6094 21.4808 78.6967 20.5078 78.0575 19.2507C77.4183 17.9865 77.0987 16.4986 77.0987 14.7869C77.0987 13.1037 77.4183 11.6264 78.0575 10.3551C78.7038 9.0767 79.6058 8.08239 80.7635 7.37216C81.9212 6.65483 83.2812 6.29617 84.8438 6.29617C85.8523 6.29617 86.804 6.45952 87.6989 6.78622C88.6009 7.10582 89.3963 7.60298 90.0852 8.2777C90.7812 8.95241 91.3281 9.81179 91.7259 10.8558C92.1236 11.8928 92.3224 13.1286 92.3224 14.5632V15.7457H78.9098V13.1463H88.6257C88.6186 12.4077 88.4588 11.7507 88.1463 11.1754C87.8338 10.593 87.397 10.1349 86.8359 9.80114C86.282 9.46733 85.6357 9.30043 84.897 9.30043C84.1087 9.30043 83.4162 9.49219 82.8196 9.87571C82.223 10.2521 81.7578 10.7493 81.424 11.3672C81.0973 11.978 80.9304 12.6491 80.9233 13.3807V15.6499C80.9233 16.6016 81.0973 17.4183 81.4453 18.1001C81.7933 18.7749 82.2798 19.2933 82.9048 19.6555C83.5298 20.0107 84.2614 20.1882 85.0994 20.1882C85.6605 20.1882 86.1683 20.1101 86.6229 19.9538C87.0774 19.7905 87.4716 19.5526 87.8054 19.2401C88.1392 18.9276 88.3913 18.5405 88.5618 18.0788L92.1626 18.4837C91.9354 19.4354 91.5021 20.2663 90.8629 20.9766C90.2308 21.6797 89.4212 22.2266 88.434 22.6172C87.4467 23.0007 86.3175 23.1925 85.0462 23.1925Z" fill="black"/>
<path d="M103.756 6.50923V9.49219H94.3493V6.50923H103.756ZM96.6717 2.58878H100.528V17.951C100.528 18.4695 100.606 18.8672 100.763 19.1442C100.926 19.4141 101.139 19.5987 101.402 19.6982C101.665 19.7976 101.956 19.8473 102.275 19.8473C102.517 19.8473 102.737 19.8295 102.936 19.794C103.142 19.7585 103.298 19.7266 103.405 19.6982L104.055 22.7131C103.849 22.7841 103.554 22.8622 103.17 22.9474C102.794 23.0327 102.332 23.0824 101.785 23.0966C100.819 23.125 99.9494 22.9794 99.1752 22.6598C98.4011 22.3331 97.7868 21.8288 97.3322 21.147C96.8848 20.4652 96.6646 19.6129 96.6717 18.5902V2.58878Z" fill="black"/>
<path d="M133.269 8.41619H129.284C129.171 7.76278 128.961 7.18395 128.656 6.67969C128.351 6.16832 127.971 5.73508 127.516 5.37997C127.061 5.02486 126.543 4.75852 125.961 4.58097C125.385 4.39631 124.764 4.30398 124.096 4.30398C122.91 4.30398 121.859 4.60227 120.943 5.19886C120.027 5.78835 119.309 6.65483 118.791 7.7983C118.272 8.93466 118.013 10.3232 118.013 11.9638C118.013 13.6328 118.272 15.0391 118.791 16.1825C119.316 17.3189 120.034 18.1783 120.943 18.7607C121.859 19.3359 122.907 19.6236 124.086 19.6236C124.739 19.6236 125.35 19.5384 125.918 19.3679C126.493 19.1903 127.008 18.9311 127.463 18.5902C127.924 18.2493 128.311 17.8303 128.624 17.3331C128.944 16.8359 129.164 16.2678 129.284 15.6286L133.269 15.6499C133.12 16.6868 132.797 17.6598 132.299 18.5689C131.809 19.478 131.167 20.2805 130.371 20.9766C129.576 21.6655 128.645 22.2053 127.58 22.5959C126.515 22.9794 125.332 23.1712 124.032 23.1712C122.115 23.1712 120.403 22.7273 118.897 21.8395C117.392 20.9517 116.206 19.6697 115.339 17.9936C114.473 16.3175 114.039 14.3075 114.039 11.9638C114.039 9.61292 114.476 7.60298 115.35 5.93395C116.223 4.25781 117.413 2.97585 118.919 2.08807C120.424 1.20028 122.129 0.756392 124.032 0.756392C125.247 0.756392 126.376 0.926846 127.42 1.26776C128.464 1.60866 129.395 2.10938 130.211 2.76989C131.028 3.4233 131.699 4.22585 132.225 5.17756C132.757 6.12216 133.105 7.2017 133.269 8.41619Z" fill="black"/>
<path d="M136.718 22.8729V6.50923H140.457V9.23651H140.628C140.926 8.2919 141.437 7.56392 142.162 7.05256C142.893 6.53409 143.728 6.27486 144.665 6.27486C144.878 6.27486 145.116 6.28551 145.379 6.30682C145.649 6.32102 145.873 6.34588 146.05 6.38139V9.92898C145.887 9.87216 145.628 9.82244 145.273 9.77983C144.925 9.73011 144.587 9.70526 144.26 9.70526C143.557 9.70526 142.925 9.85795 142.364 10.1634C141.81 10.4616 141.373 10.8771 141.054 11.4098C140.734 11.9425 140.574 12.5568 140.574 13.2528V22.8729H136.718Z" fill="black"/>
<path d="M155.183 23.1925C153.542 23.1925 152.125 22.8516 150.932 22.1697C149.746 21.4808 148.833 20.5078 148.194 19.2507C147.555 17.9865 147.235 16.4986 147.235 14.7869C147.235 13.1037 147.555 11.6264 148.194 10.3551C148.841 9.0767 149.743 8.08239 150.9 7.37216C152.058 6.65483 153.418 6.29617 154.98 6.29617C155.989 6.29617 156.941 6.45952 157.836 6.78622C158.738 7.10582 159.533 7.60298 160.222 8.2777C160.918 8.95241 161.465 9.81179 161.863 10.8558C162.26 11.8928 162.459 13.1286 162.459 14.5632V15.7457H149.047V13.1463H158.762C158.755 12.4077 158.596 11.7507 158.283 11.1754C157.971 10.593 157.534 10.1349 156.973 9.80114C156.419 9.46733 155.772 9.30043 155.034 9.30043C154.245 9.30043 153.553 9.49219 152.956 9.87571C152.36 10.2521 151.895 10.7493 151.561 11.3672C151.234 11.978 151.067 12.6491 151.06 13.3807V15.6499C151.06 16.6016 151.234 17.4183 151.582 18.1001C151.93 18.7749 152.417 19.2933 153.042 19.6555C153.667 20.0107 154.398 20.1882 155.236 20.1882C155.797 20.1882 156.305 20.1101 156.76 19.9538C157.214 19.7905 157.608 19.5526 157.942 19.2401C158.276 18.9276 158.528 18.5405 158.699 18.0788L162.299 18.4837C162.072 19.4354 161.639 20.2663 161 20.9766C160.368 21.6797 159.558 22.2266 158.571 22.6172C157.583 23.0007 156.454 23.1925 155.183 23.1925Z" fill="black"/>
<path d="M170.431 23.2031C169.394 23.2031 168.46 23.0185 167.629 22.6491C166.805 22.2727 166.151 21.7188 165.669 20.9872C165.193 20.2557 164.955 19.3537 164.955 18.2812C164.955 17.358 165.125 16.5945 165.466 15.9908C165.807 15.3871 166.272 14.9041 166.862 14.5419C167.451 14.1797 168.115 13.9062 168.854 13.7216C169.6 13.5298 170.37 13.3913 171.166 13.3061C172.124 13.2067 172.902 13.1179 173.499 13.0398C174.095 12.9545 174.529 12.8267 174.798 12.6562C175.075 12.4787 175.214 12.2053 175.214 11.8359V11.772C175.214 10.9695 174.976 10.348 174.5 9.90767C174.024 9.46733 173.339 9.24716 172.444 9.24716C171.499 9.24716 170.75 9.45312 170.196 9.86506C169.649 10.277 169.28 10.7635 169.088 11.3246L165.487 10.8132C165.771 9.81889 166.24 8.98793 166.894 8.32031C167.547 7.6456 168.346 7.14134 169.291 6.80753C170.235 6.46662 171.279 6.29617 172.423 6.29617C173.211 6.29617 173.996 6.3885 174.777 6.57315C175.558 6.75781 176.272 7.06321 176.919 7.48935C177.565 7.90838 178.083 8.48011 178.474 9.20455C178.872 9.92898 179.07 10.8345 179.07 11.9212V22.8729H175.363V20.625H175.235C175.001 21.0795 174.671 21.5057 174.244 21.9034C173.825 22.294 173.296 22.6101 172.657 22.8516C172.025 23.0859 171.283 23.2031 170.431 23.2031ZM171.432 20.3693C172.206 20.3693 172.877 20.2166 173.445 19.9112C174.014 19.5987 174.45 19.1868 174.756 18.6754C175.068 18.1641 175.225 17.6065 175.225 17.0028V15.0746C175.104 15.174 174.898 15.2663 174.607 15.3516C174.323 15.4368 174.003 15.5114 173.648 15.5753C173.293 15.6392 172.941 15.696 172.593 15.7457C172.245 15.7955 171.943 15.8381 171.688 15.8736C171.112 15.9517 170.597 16.0795 170.143 16.2571C169.688 16.4347 169.33 16.6832 169.067 17.0028C168.804 17.3153 168.673 17.7202 168.673 18.2173C168.673 18.9276 168.932 19.4638 169.45 19.826C169.969 20.1882 170.629 20.3693 171.432 20.3693Z" fill="black"/>
<path d="M191.119 6.50923V9.49219H181.713V6.50923H191.119ZM184.035 2.58878H187.892V17.951C187.892 18.4695 187.97 18.8672 188.126 19.1442C188.289 19.4141 188.502 19.5987 188.765 19.6982C189.028 19.7976 189.319 19.8473 189.639 19.8473C189.88 19.8473 190.1 19.8295 190.299 19.794C190.505 19.7585 190.661 19.7266 190.768 19.6982L191.418 22.7131C191.212 22.7841 190.917 22.8622 190.534 22.9474C190.157 23.0327 189.695 23.0824 189.149 23.0966C188.183 23.125 187.313 22.9794 186.539 22.6598C185.764 22.3331 185.15 21.8288 184.695 21.147C184.248 20.4652 184.028 19.6129 184.035 18.5902V2.58878Z" fill="black"/>
<path d="M194.345 22.8729V6.50923H198.201V22.8729H194.345ZM196.284 4.18679C195.673 4.18679 195.147 3.98438 194.707 3.57955C194.267 3.16761 194.047 2.674 194.047 2.09872C194.047 1.51633 194.267 1.02273 194.707 0.617897C195.147 0.205966 195.673 0 196.284 0C196.902 0 197.427 0.205966 197.86 0.617897C198.301 1.02273 198.521 1.51633 198.521 2.09872C198.521 2.674 198.301 3.16761 197.86 3.57955C197.427 3.98438 196.902 4.18679 196.284 4.18679Z" fill="black"/>
<path d="M209.305 23.1925C207.707 23.1925 206.322 22.8409 205.15 22.1378C203.978 21.4347 203.069 20.451 202.423 19.1868C201.784 17.9226 201.464 16.4453 201.464 14.755C201.464 13.0646 201.784 11.5838 202.423 10.3125C203.069 9.04119 203.978 8.05398 205.15 7.35085C206.322 6.64773 207.707 6.29617 209.305 6.29617C210.903 6.29617 212.288 6.64773 213.46 7.35085C214.632 8.05398 215.537 9.04119 216.176 10.3125C216.823 11.5838 217.146 13.0646 217.146 14.755C217.146 16.4453 216.823 17.9226 216.176 19.1868C215.537 20.451 214.632 21.4347 213.46 22.1378C212.288 22.8409 210.903 23.1925 209.305 23.1925ZM209.326 20.103C210.193 20.103 210.917 19.8651 211.499 19.3892C212.082 18.9062 212.515 18.2599 212.799 17.4503C213.09 16.6406 213.236 15.7386 213.236 14.7443C213.236 13.7429 213.09 12.8374 212.799 12.0277C212.515 11.2109 212.082 10.5611 211.499 10.0781C210.917 9.59517 210.193 9.35369 209.326 9.35369C208.438 9.35369 207.7 9.59517 207.11 10.0781C206.528 10.5611 206.091 11.2109 205.8 12.0277C205.516 12.8374 205.374 13.7429 205.374 14.7443C205.374 15.7386 205.516 16.6406 205.8 17.4503C206.091 18.2599 206.528 18.9062 207.11 19.3892C207.7 19.8651 208.438 20.103 209.326 20.103Z" fill="black"/>
<path d="M224.276 13.2848V22.8729H220.419V6.50923H224.105V9.28977H224.297C224.673 8.37358 225.273 7.6456 226.097 7.10582C226.928 6.56605 227.955 6.29617 229.176 6.29617C230.305 6.29617 231.289 6.53764 232.127 7.0206C232.972 7.50355 233.626 8.20312 234.087 9.11932C234.556 10.0355 234.787 11.147 234.78 12.4538V22.8729H230.923V13.0504C230.923 11.9567 230.639 11.1009 230.071 10.483C229.51 9.86506 228.732 9.55611 227.738 9.55611C227.063 9.55611 226.463 9.70526 225.938 10.0036C225.419 10.2947 225.011 10.7173 224.712 11.2713C224.421 11.8253 224.276 12.4964 224.276 13.2848Z" fill="black"/>
<path d="M264.988 8.41619H261.003C260.89 7.76278 260.68 7.18395 260.375 6.67969C260.069 6.16832 259.689 5.73508 259.235 5.37997C258.78 5.02486 258.262 4.75852 257.679 4.58097C257.104 4.39631 256.483 4.30398 255.815 4.30398C254.629 4.30398 253.578 4.60227 252.662 5.19886C251.745 5.78835 251.028 6.65483 250.51 7.7983C249.991 8.93466 249.732 10.3232 249.732 11.9638C249.732 13.6328 249.991 15.0391 250.51 16.1825C251.035 17.3189 251.752 18.1783 252.662 18.7607C253.578 19.3359 254.625 19.6236 255.804 19.6236C256.458 19.6236 257.069 19.5384 257.637 19.3679C258.212 19.1903 258.727 18.9311 259.181 18.5902C259.643 18.2493 260.03 17.8303 260.343 17.3331C260.662 16.8359 260.882 16.2678 261.003 15.6286L264.988 15.6499C264.838 16.6868 264.515 17.6598 264.018 18.5689C263.528 19.478 262.885 20.2805 262.09 20.9766C261.294 21.6655 260.364 22.2053 259.299 22.5959C258.233 22.9794 257.051 23.1712 255.751 23.1712C253.833 23.1712 252.122 22.7273 250.616 21.8395C249.11 20.9517 247.924 19.6697 247.058 17.9936C246.191 16.3175 245.758 14.3075 245.758 11.9638C245.758 9.61292 246.195 7.60298 247.069 5.93395C247.942 4.25781 249.132 2.97585 250.637 2.08807C252.143 1.20028 253.848 0.756392 255.751 0.756392C256.966 0.756392 258.095 0.926846 259.139 1.26776C260.183 1.60866 261.113 2.10938 261.93 2.76989C262.747 3.4233 263.418 4.22585 263.944 5.17756C264.476 6.12216 264.824 7.2017 264.988 8.41619Z" fill="black"/>
<path d="M275.574 23.1925C273.976 23.1925 272.591 22.8409 271.42 22.1378C270.248 21.4347 269.339 20.451 268.692 19.1868C268.053 17.9226 267.733 16.4453 267.733 14.755C267.733 13.0646 268.053 11.5838 268.692 10.3125C269.339 9.04119 270.248 8.05398 271.42 7.35085C272.591 6.64773 273.976 6.29617 275.574 6.29617C277.172 6.29617 278.557 6.64773 279.729 7.35085C280.901 8.05398 281.807 9.04119 282.446 10.3125C283.092 11.5838 283.415 13.0646 283.415 14.755C283.415 16.4453 283.092 17.9226 282.446 19.1868C281.807 20.451 280.901 21.4347 279.729 22.1378C278.557 22.8409 277.172 23.1925 275.574 23.1925ZM275.596 20.103C276.462 20.103 277.187 19.8651 277.769 19.3892C278.351 18.9062 278.785 18.2599 279.069 17.4503C279.36 16.6406 279.505 15.7386 279.505 14.7443C279.505 13.7429 279.36 12.8374 279.069 12.0277C278.785 11.2109 278.351 10.5611 277.769 10.0781C277.187 9.59517 276.462 9.35369 275.596 9.35369C274.708 9.35369 273.969 9.59517 273.38 10.0781C272.797 10.5611 272.361 11.2109 272.069 12.0277C271.785 12.8374 271.643 13.7429 271.643 14.7443C271.643 15.7386 271.785 16.6406 272.069 17.4503C272.361 18.2599 272.797 18.9062 273.38 19.3892C273.969 19.8651 274.708 20.103 275.596 20.103Z" fill="black"/>
<path d="M290.545 13.2848V22.8729H286.689V6.50923H290.375V9.28977H290.566C290.943 8.37358 291.543 7.6456 292.367 7.10582C293.198 6.56605 294.224 6.29617 295.446 6.29617C296.575 6.29617 297.559 6.53764 298.397 7.0206C299.242 7.50355 299.895 8.20312 300.357 9.11932C300.826 10.0355 301.056 11.147 301.049 12.4538V22.8729H297.193V13.0504C297.193 11.9567 296.909 11.1009 296.341 10.483C295.779 9.86506 295.002 9.55611 294.007 9.55611C293.333 9.55611 292.733 9.70526 292.207 10.0036C291.689 10.2947 291.28 10.7173 290.982 11.2713C290.691 11.8253 290.545 12.4964 290.545 13.2848Z" fill="black"/>
<path d="M313.141 6.50923V9.49219H303.734V6.50923H313.141ZM306.056 2.58878H309.913V17.951C309.913 18.4695 309.991 18.8672 310.147 19.1442C310.311 19.4141 310.524 19.5987 310.787 19.6982C311.049 19.7976 311.341 19.8473 311.66 19.8473C311.902 19.8473 312.122 19.8295 312.321 19.794C312.527 19.7585 312.683 19.7266 312.789 19.6982L313.439 22.7131C313.233 22.7841 312.939 22.8622 312.555 22.9474C312.179 23.0327 311.717 23.0824 311.17 23.0966C310.204 23.125 309.334 22.9794 308.56 22.6598C307.786 22.3331 307.172 21.8288 306.717 21.147C306.27 20.4652 306.049 19.6129 306.056 18.5902V2.58878Z" fill="black"/>
<path d="M323.435 23.1925C321.794 23.1925 320.377 22.8516 319.184 22.1697C317.998 21.4808 317.085 20.5078 316.446 19.2507C315.807 17.9865 315.487 16.4986 315.487 14.7869C315.487 13.1037 315.807 11.6264 316.446 10.3551C317.092 9.0767 317.994 8.08239 319.152 7.37216C320.31 6.65483 321.67 6.29617 323.232 6.29617C324.241 6.29617 325.193 6.45952 326.088 6.78622C326.99 7.10582 327.785 7.60298 328.474 8.2777C329.17 8.95241 329.717 9.81179 330.115 10.8558C330.512 11.8928 330.711 13.1286 330.711 14.5632V15.7457H317.298V13.1463H327.014C327.007 12.4077 326.847 11.7507 326.535 11.1754C326.222 10.593 325.786 10.1349 325.225 9.80114C324.671 9.46733 324.024 9.30043 323.286 9.30043C322.497 9.30043 321.805 9.49219 321.208 9.87571C320.612 10.2521 320.146 10.7493 319.813 11.3672C319.486 11.978 319.319 12.6491 319.312 13.3807V15.6499C319.312 16.6016 319.486 17.4183 319.834 18.1001C320.182 18.7749 320.668 19.2933 321.293 19.6555C321.918 20.0107 322.65 20.1882 323.488 20.1882C324.049 20.1882 324.557 20.1101 325.012 19.9538C325.466 19.7905 325.86 19.5526 326.194 19.2401C326.528 18.9276 326.78 18.5405 326.95 18.0788L330.551 18.4837C330.324 19.4354 329.891 20.2663 329.252 20.9766C328.619 21.6797 327.81 22.2266 326.823 22.6172C325.835 23.0007 324.706 23.1925 323.435 23.1925Z" fill="black"/>
<path d="M337.83 13.2848V22.8729H333.974V6.50923H337.66V9.28977H337.852C338.228 8.37358 338.828 7.6456 339.652 7.10582C340.483 6.56605 341.509 6.29617 342.731 6.29617C343.86 6.29617 344.844 6.53764 345.682 7.0206C346.527 7.50355 347.18 8.20312 347.642 9.11932C348.111 10.0355 348.342 11.147 348.335 12.4538V22.8729H344.478V13.0504C344.478 11.9567 344.194 11.1009 343.626 10.483C343.065 9.86506 342.287 9.55611 341.293 9.55611C340.618 9.55611 340.018 9.70526 339.492 10.0036C338.974 10.2947 338.565 10.7173 338.267 11.2713C337.976 11.8253 337.83 12.4964 337.83 13.2848Z" fill="black"/>
<path d="M360.426 6.50923V9.49219H351.019V6.50923H360.426ZM353.342 2.58878H357.198V17.951C357.198 18.4695 357.276 18.8672 357.433 19.1442C357.596 19.4141 357.809 19.5987 358.072 19.6982C358.335 19.7976 358.626 19.8473 358.945 19.8473C359.187 19.8473 359.407 19.8295 359.606 19.794C359.812 19.7585 359.968 19.7266 360.075 19.6982L360.724 22.7131C360.518 22.7841 360.224 22.8622 359.84 22.9474C359.464 23.0327 359.002 23.0824 358.455 23.0966C357.489 23.125 356.619 22.9794 355.845 22.6598C355.071 22.3331 354.457 21.8288 354.002 21.147C353.555 20.4652 353.335 19.6129 353.342 18.5902V2.58878Z" fill="black"/>
<path d="M376.35 10.8345L372.835 11.218C372.735 10.8629 372.561 10.5291 372.313 10.2166C372.071 9.90412 371.744 9.65199 371.333 9.46023C370.921 9.26847 370.416 9.17258 369.82 9.17258C369.017 9.17258 368.342 9.34659 367.796 9.6946C367.256 10.0426 366.99 10.4936 366.997 11.0476C366.99 11.5234 367.164 11.9105 367.519 12.2088C367.881 12.5071 368.477 12.7521 369.308 12.9439L372.1 13.5405C373.648 13.8743 374.798 14.4034 375.551 15.1278C376.311 15.8523 376.695 16.8004 376.702 17.9723C376.695 19.0021 376.393 19.9112 375.796 20.6996C375.207 21.4808 374.387 22.0916 373.335 22.532C372.284 22.9723 371.077 23.1925 369.713 23.1925C367.71 23.1925 366.098 22.7734 364.877 21.9354C363.655 21.0902 362.927 19.9148 362.693 18.4091L366.453 18.0469C366.624 18.7855 366.986 19.343 367.54 19.7195C368.094 20.0959 368.815 20.2841 369.703 20.2841C370.619 20.2841 371.354 20.0959 371.908 19.7195C372.469 19.343 372.749 18.8778 372.749 18.3239C372.749 17.8551 372.568 17.468 372.206 17.1626C371.851 16.8572 371.297 16.6229 370.544 16.4595L367.753 15.8736C366.183 15.5469 365.022 14.9964 364.269 14.2223C363.517 13.4411 363.144 12.4538 363.151 11.2607C363.144 10.2521 363.417 9.37855 363.971 8.63992C364.532 7.89418 365.31 7.31889 366.304 6.91406C367.306 6.50213 368.46 6.29617 369.767 6.29617C371.684 6.29617 373.193 6.70455 374.294 7.52131C375.402 8.33807 376.088 9.44247 376.35 10.8345Z" fill="black"/>
<path d="M387.756 16.1229C387.756 14.2479 387.993 12.477 388.467 10.8104C388.941 9.1437 389.62 7.5812 390.506 6.12287H391.771C391.391 6.73745 391.042 7.43277 390.725 8.20881C390.412 8.98485 390.141 9.81297 389.912 10.6932C389.683 11.5734 389.506 12.4744 389.381 13.3963C389.256 14.313 389.193 15.2218 389.193 16.1229C389.193 17.326 389.303 18.5395 389.521 19.7635C389.74 20.9875 390.042 22.1489 390.428 23.2479C390.818 24.3468 391.266 25.3052 391.771 26.1229H390.506C389.62 24.6593 388.941 23.0942 388.467 21.4276C387.993 19.7609 387.756 17.9927 387.756 16.1229Z" fill="black"/>
<path d="M399.531 10.8729V12.0838H393.805V10.8729H399.531ZM395.594 7.99787H396.992V19.7401C396.992 20.2401 397.078 20.6333 397.25 20.9197C397.422 21.201 397.646 21.4015 397.922 21.5213C398.198 21.6359 398.492 21.6932 398.805 21.6932C398.987 21.6932 399.143 21.6828 399.273 21.6619C399.404 21.6359 399.518 21.6098 399.617 21.5838L399.914 22.8416C399.779 22.8937 399.612 22.9406 399.414 22.9822C399.216 23.0291 398.971 23.0526 398.68 23.0526C398.169 23.0526 397.677 22.9406 397.203 22.7166C396.734 22.4927 396.349 22.1593 396.047 21.7166C395.745 21.2739 395.594 20.7244 395.594 20.0682V7.99787Z" fill="black"/>
<path d="M404.338 15.3729V22.8729H402.947V6.87287H404.338V12.7557H404.463C404.744 12.1359 405.179 11.6411 405.768 11.2713C406.361 10.9015 407.111 10.7166 408.018 10.7166C408.83 10.7166 409.544 10.8833 410.158 11.2166C410.773 11.55 411.252 12.0421 411.596 12.6932C411.939 13.3442 412.111 14.1463 412.111 15.0994V22.8729H410.713V15.1854C410.713 14.1958 410.437 13.4171 409.885 12.8494C409.338 12.2765 408.598 11.9901 407.666 11.9901C407.025 11.9901 406.455 12.1255 405.955 12.3963C405.455 12.6671 405.059 13.0578 404.768 13.5682C404.481 14.0734 404.338 14.675 404.338 15.3729Z" fill="black"/>
<path d="M415.789 22.8729V10.8729H417.188V22.8729H415.789ZM416.5 8.81037C416.214 8.81037 415.969 8.71402 415.766 8.52131C415.562 8.32339 415.461 8.08641 415.461 7.81037C415.461 7.53433 415.562 7.29995 415.766 7.10724C415.969 6.90933 416.214 6.81037 416.5 6.81037C416.786 6.81037 417.031 6.90933 417.234 7.10724C417.438 7.29995 417.539 7.53433 417.539 7.81037C417.539 8.08641 417.438 8.32339 417.234 8.52131C417.031 8.71402 416.786 8.81037 416.5 8.81037Z" fill="black"/>
<path d="M428.928 13.5057L427.654 13.8651C427.529 13.5057 427.352 13.1802 427.123 12.8885C426.894 12.5968 426.594 12.3651 426.225 12.1932C425.86 12.0213 425.407 11.9354 424.865 11.9354C424.053 11.9354 423.386 12.1281 422.865 12.5135C422.344 12.8989 422.084 13.3963 422.084 14.0057C422.084 14.5213 422.261 14.9406 422.615 15.2635C422.975 15.5812 423.527 15.8338 424.271 16.0213L426.084 16.4666C427.089 16.7114 427.842 17.0994 428.342 17.6307C428.847 18.1619 429.1 18.8286 429.1 19.6307C429.1 20.3078 428.912 20.9093 428.537 21.4354C428.162 21.9614 427.639 22.3755 426.967 22.6776C426.3 22.9744 425.527 23.1229 424.646 23.1229C423.475 23.1229 422.508 22.8598 421.748 22.3338C420.988 21.8026 420.501 21.0369 420.287 20.0369L421.623 19.7088C421.795 20.4223 422.131 20.9614 422.631 21.326C423.136 21.6906 423.8 21.8729 424.623 21.8729C425.545 21.8729 426.282 21.6671 426.834 21.2557C427.386 20.839 427.662 20.3182 427.662 19.6932C427.662 19.2088 427.501 18.8026 427.178 18.4744C426.855 18.1411 426.365 17.8963 425.709 17.7401L423.748 17.2713C422.706 17.0213 421.936 16.6255 421.436 16.0838C420.936 15.5421 420.686 14.8703 420.686 14.0682C420.686 13.4067 420.865 12.826 421.225 12.326C421.584 11.8208 422.079 11.425 422.709 11.1385C423.339 10.852 424.058 10.7088 424.865 10.7088C425.964 10.7088 426.842 10.9588 427.498 11.4588C428.16 11.9536 428.636 12.6359 428.928 13.5057Z" fill="black"/>
<path d="M440.996 22.8729L437.371 10.8729H438.84L441.684 20.7713H441.785L444.621 10.8729H446.098L448.91 20.7479H449.02L451.863 10.8729H453.332L449.707 22.8729H448.27L445.426 13.0369H445.277L442.434 22.8729H440.996Z" fill="black"/>
<path d="M456.051 22.8729V10.8729H457.449V22.8729H456.051ZM456.762 8.81037C456.475 8.81037 456.23 8.71402 456.027 8.52131C455.824 8.32339 455.723 8.08641 455.723 7.81037C455.723 7.53433 455.824 7.29995 456.027 7.10724C456.23 6.90933 456.475 6.81037 456.762 6.81037C457.048 6.81037 457.293 6.90933 457.496 7.10724C457.699 7.29995 457.801 7.53433 457.801 7.81037C457.801 8.08641 457.699 8.32339 457.496 8.52131C457.293 8.71402 457.048 8.81037 456.762 8.81037Z" fill="black"/>
<path d="M462.518 6.87287V22.8729H461.127V6.87287H462.518Z" fill="black"/>
<path d="M467.588 6.87287V22.8729H466.197V6.87287H467.588Z" fill="black"/>
<path d="M477.744 22.8729V6.87287H479.143V13.1619H479.268C479.424 12.8026 479.648 12.4328 479.939 12.0526C480.236 11.6723 480.624 11.3546 481.104 11.0994C481.588 10.839 482.197 10.7088 482.932 10.7088C483.916 10.7088 484.781 10.9692 485.525 11.4901C486.27 12.0057 486.851 12.7296 487.268 13.6619C487.684 14.589 487.893 15.6697 487.893 16.9041C487.893 18.1437 487.684 19.2296 487.268 20.1619C486.856 21.0942 486.278 21.8208 485.533 22.3416C484.794 22.8625 483.934 23.1229 482.955 23.1229C482.226 23.1229 481.617 22.9927 481.127 22.7322C480.643 22.4718 480.252 22.1515 479.955 21.7713C479.658 21.3859 479.429 21.0109 479.268 20.6463H479.096V22.8729H477.744ZM479.119 16.8807C479.119 17.8494 479.262 18.7088 479.549 19.4588C479.84 20.2036 480.257 20.7895 480.799 21.2166C481.346 21.6385 482.007 21.8494 482.783 21.8494C483.58 21.8494 484.255 21.6307 484.807 21.1932C485.359 20.7505 485.778 20.1541 486.064 19.4041C486.351 18.6541 486.494 17.813 486.494 16.8807C486.494 15.9588 486.351 15.1281 486.064 14.3885C485.783 13.6489 485.367 13.063 484.814 12.6307C484.262 12.1932 483.585 11.9744 482.783 11.9744C482.002 11.9744 481.338 12.1854 480.791 12.6072C480.249 13.0239 479.835 13.602 479.549 14.3416C479.262 15.076 479.119 15.9223 479.119 16.8807Z" fill="black"/>
<path d="M495.799 23.1229C494.679 23.1229 493.71 22.8625 492.893 22.3416C492.075 21.8156 491.442 21.089 490.994 20.1619C490.551 19.2296 490.33 18.1567 490.33 16.9432C490.33 15.7348 490.551 14.6619 490.994 13.7244C491.442 12.7817 492.059 12.0447 492.846 11.5135C493.637 10.977 494.551 10.7088 495.588 10.7088C496.239 10.7088 496.867 10.8286 497.471 11.0682C498.075 11.3026 498.617 11.6645 499.096 12.1541C499.58 12.6385 499.963 13.2505 500.244 13.9901C500.525 14.7244 500.666 15.5942 500.666 16.5994V17.2869H491.291V16.0604H499.244C499.244 15.2895 499.088 14.5968 498.775 13.9822C498.468 13.3625 498.038 12.8729 497.486 12.5135C496.939 12.1541 496.307 11.9744 495.588 11.9744C494.827 11.9744 494.158 12.1776 493.58 12.5838C493.002 12.9901 492.549 13.5265 492.221 14.1932C491.898 14.8598 491.734 15.589 491.729 16.3807V17.1151C491.729 18.0682 491.893 18.9015 492.221 19.6151C492.554 20.3234 493.025 20.8729 493.635 21.2635C494.244 21.6541 494.965 21.8494 495.799 21.8494C496.367 21.8494 496.864 21.7609 497.291 21.5838C497.723 21.4067 498.085 21.1697 498.377 20.8729C498.674 20.5708 498.898 20.2401 499.049 19.8807L500.369 20.3104C500.187 20.8156 499.887 21.2817 499.471 21.7088C499.059 22.1359 498.544 22.4796 497.924 22.7401C497.309 22.9953 496.601 23.1229 495.799 23.1229Z" fill="black"/>
<path d="M512.582 22.8729L508.957 10.8729H510.426L513.27 20.7713H513.371L516.207 10.8729H517.684L520.496 20.7479H520.605L523.449 10.8729H524.918L521.293 22.8729H519.855L517.012 13.0369H516.863L514.02 22.8729H512.582Z" fill="black"/>
<path d="M529.012 15.3729V22.8729H527.621V6.87287H529.012V12.7557H529.137C529.418 12.1359 529.853 11.6411 530.441 11.2713C531.035 10.9015 531.785 10.7166 532.691 10.7166C533.504 10.7166 534.217 10.8833 534.832 11.2166C535.447 11.55 535.926 12.0421 536.27 12.6932C536.613 13.3442 536.785 14.1463 536.785 15.0994V22.8729H535.387V15.1854C535.387 14.1958 535.111 13.4171 534.559 12.8494C534.012 12.2765 533.272 11.9901 532.34 11.9901C531.699 11.9901 531.129 12.1255 530.629 12.3963C530.129 12.6671 529.733 13.0578 529.441 13.5682C529.155 14.0734 529.012 14.675 529.012 15.3729Z" fill="black"/>
<path d="M543.799 23.1463C543.075 23.1463 542.413 23.0057 541.814 22.7244C541.216 22.438 540.739 22.0265 540.385 21.4901C540.031 20.9484 539.854 20.2921 539.854 19.5213C539.854 18.9276 539.966 18.4276 540.189 18.0213C540.413 17.6151 540.731 17.2817 541.143 17.0213C541.554 16.7609 542.041 16.5552 542.604 16.4041C543.166 16.2531 543.786 16.1359 544.463 16.0526C545.135 15.9692 545.702 15.8963 546.166 15.8338C546.635 15.7713 546.992 15.6723 547.236 15.5369C547.481 15.4015 547.604 15.1828 547.604 14.8807V14.5994C547.604 13.7817 547.359 13.1385 546.869 12.6697C546.385 12.1958 545.687 11.9588 544.775 11.9588C543.911 11.9588 543.205 12.1489 542.658 12.5291C542.117 12.9093 541.736 13.3572 541.518 13.8729L540.197 13.3963C540.468 12.7401 540.843 12.2166 541.322 11.826C541.801 11.4302 542.338 11.1463 542.932 10.9744C543.525 10.7973 544.127 10.7088 544.736 10.7088C545.195 10.7088 545.671 10.7687 546.166 10.8885C546.666 11.0083 547.13 11.2166 547.557 11.5135C547.984 11.8052 548.33 12.214 548.596 12.7401C548.861 13.2609 548.994 13.9223 548.994 14.7244V22.8729H547.604V20.9744H547.518C547.351 21.3286 547.104 21.6723 546.775 22.0057C546.447 22.339 546.036 22.6125 545.541 22.826C545.046 23.0395 544.466 23.1463 543.799 23.1463ZM543.986 21.8729C544.726 21.8729 545.367 21.7088 545.908 21.3807C546.45 21.0526 546.867 20.6177 547.158 20.076C547.455 19.5291 547.604 18.9276 547.604 18.2713V16.5369C547.499 16.6359 547.325 16.7244 547.08 16.8026C546.841 16.8807 546.562 16.951 546.244 17.0135C545.932 17.0708 545.619 17.1203 545.307 17.1619C544.994 17.2036 544.713 17.2401 544.463 17.2713C543.786 17.3546 543.208 17.4848 542.729 17.6619C542.249 17.839 541.882 18.0838 541.627 18.3963C541.372 18.7036 541.244 19.0994 541.244 19.5838C541.244 20.313 541.505 20.8781 542.025 21.2791C542.546 21.675 543.2 21.8729 543.986 21.8729Z" fill="black"/>
<path d="M557.42 10.8729V12.0838H551.693V10.8729H557.42ZM553.482 7.99787H554.881V19.7401C554.881 20.2401 554.967 20.6333 555.139 20.9197C555.311 21.201 555.534 21.4015 555.811 21.5213C556.087 21.6359 556.381 21.6932 556.693 21.6932C556.876 21.6932 557.032 21.6828 557.162 21.6619C557.292 21.6359 557.407 21.6098 557.506 21.5838L557.803 22.8416C557.667 22.8937 557.501 22.9406 557.303 22.9822C557.105 23.0291 556.86 23.0526 556.568 23.0526C556.058 23.0526 555.566 22.9406 555.092 22.7166C554.623 22.4927 554.238 22.1593 553.936 21.7166C553.633 21.2739 553.482 20.7244 553.482 20.0682V7.99787Z" fill="black"/>
<path d="M562.359 6.87287V8.27912C562.359 8.7062 562.281 9.16193 562.125 9.64631C561.974 10.1255 561.75 10.5916 561.453 11.0447C561.161 11.4927 560.807 11.8833 560.391 12.2166L559.633 11.5526C560.023 11.0942 560.354 10.5864 560.625 10.0291C560.896 9.46662 561.031 8.8911 561.031 8.30256V6.87287H562.359Z" fill="black"/>
<path d="M571.348 13.5057L570.074 13.8651C569.949 13.5057 569.772 13.1802 569.543 12.8885C569.314 12.5968 569.014 12.3651 568.645 12.1932C568.28 12.0213 567.827 11.9354 567.285 11.9354C566.473 11.9354 565.806 12.1281 565.285 12.5135C564.764 12.8989 564.504 13.3963 564.504 14.0057C564.504 14.5213 564.681 14.9406 565.035 15.2635C565.395 15.5812 565.947 15.8338 566.691 16.0213L568.504 16.4666C569.509 16.7114 570.262 17.0994 570.762 17.6307C571.267 18.1619 571.52 18.8286 571.52 19.6307C571.52 20.3078 571.332 20.9093 570.957 21.4354C570.582 21.9614 570.059 22.3755 569.387 22.6776C568.72 22.9744 567.947 23.1229 567.066 23.1229C565.895 23.1229 564.928 22.8598 564.168 22.3338C563.408 21.8026 562.921 21.0369 562.707 20.0369L564.043 19.7088C564.215 20.4223 564.551 20.9614 565.051 21.326C565.556 21.6906 566.22 21.8729 567.043 21.8729C567.965 21.8729 568.702 21.6671 569.254 21.2557C569.806 20.839 570.082 20.3182 570.082 19.6932C570.082 19.2088 569.921 18.8026 569.598 18.4744C569.275 18.1411 568.785 17.8963 568.129 17.7401L566.168 17.2713C565.126 17.0213 564.355 16.6255 563.855 16.0838C563.355 15.5421 563.105 14.8703 563.105 14.0682C563.105 13.4067 563.285 12.826 563.645 12.326C564.004 11.8208 564.499 11.425 565.129 11.1385C565.759 10.852 566.478 10.7088 567.285 10.7088C568.384 10.7088 569.262 10.9588 569.918 11.4588C570.579 11.9536 571.056 12.6359 571.348 13.5057Z" fill="black"/>
<path d="M580.768 22.8729V10.8729H582.166V22.8729H580.768ZM581.479 8.81037C581.192 8.81037 580.947 8.71402 580.744 8.52131C580.541 8.32339 580.439 8.08641 580.439 7.81037C580.439 7.53433 580.541 7.29995 580.744 7.10724C580.947 6.90933 581.192 6.81037 581.479 6.81037C581.765 6.81037 582.01 6.90933 582.213 7.10724C582.416 7.29995 582.518 7.53433 582.518 7.81037C582.518 8.08641 582.416 8.32339 582.213 8.52131C582.01 8.71402 581.765 8.81037 581.479 8.81037Z" fill="black"/>
<path d="M587.234 15.3729V22.8729H585.844V10.8729H587.195V12.7557H587.32C587.602 12.1411 588.039 11.6489 588.633 11.2791C589.232 10.9041 589.971 10.7166 590.852 10.7166C591.659 10.7166 592.367 10.8859 592.977 11.2244C593.591 11.5578 594.068 12.05 594.406 12.701C594.75 13.352 594.922 14.1515 594.922 15.0994V22.8729H593.531V15.1854C593.531 14.201 593.255 13.4223 592.703 12.8494C592.156 12.2765 591.422 11.9901 590.5 11.9901C589.87 11.9901 589.31 12.1255 588.82 12.3963C588.331 12.6671 587.943 13.0578 587.656 13.5682C587.375 14.0734 587.234 14.675 587.234 15.3729Z" fill="black"/>
<path d="M609.498 10.8729V12.0838H603.771V10.8729H609.498ZM605.561 7.99787H606.959V19.7401C606.959 20.2401 607.045 20.6333 607.217 20.9197C607.389 21.201 607.613 21.4015 607.889 21.5213C608.165 21.6359 608.459 21.6932 608.771 21.6932C608.954 21.6932 609.11 21.6828 609.24 21.6619C609.37 21.6359 609.485 21.6098 609.584 21.5838L609.881 22.8416C609.745 22.8937 609.579 22.9406 609.381 22.9822C609.183 23.0291 608.938 23.0526 608.646 23.0526C608.136 23.0526 607.644 22.9406 607.17 22.7166C606.701 22.4927 606.316 22.1593 606.014 21.7166C605.712 21.2739 605.561 20.7244 605.561 20.0682V7.99787Z" fill="black"/>
<path d="M614.305 15.3729V22.8729H612.914V6.87287H614.305V12.7557H614.43C614.711 12.1359 615.146 11.6411 615.734 11.2713C616.328 10.9015 617.078 10.7166 617.984 10.7166C618.797 10.7166 619.51 10.8833 620.125 11.2166C620.74 11.55 621.219 12.0421 621.562 12.6932C621.906 13.3442 622.078 14.1463 622.078 15.0994V22.8729H620.68V15.1854C620.68 14.1958 620.404 13.4171 619.852 12.8494C619.305 12.2765 618.565 11.9901 617.633 11.9901C616.992 11.9901 616.422 12.1255 615.922 12.3963C615.422 12.6671 615.026 13.0578 614.734 13.5682C614.448 14.0734 614.305 14.675 614.305 15.3729Z" fill="black"/>
<path d="M630.592 23.1229C629.472 23.1229 628.503 22.8625 627.686 22.3416C626.868 21.8156 626.235 21.089 625.787 20.1619C625.344 19.2296 625.123 18.1567 625.123 16.9432C625.123 15.7348 625.344 14.6619 625.787 13.7244C626.235 12.7817 626.852 12.0447 627.639 11.5135C628.43 10.977 629.344 10.7088 630.381 10.7088C631.032 10.7088 631.659 10.8286 632.264 11.0682C632.868 11.3026 633.409 11.6645 633.889 12.1541C634.373 12.6385 634.756 13.2505 635.037 13.9901C635.318 14.7244 635.459 15.5942 635.459 16.5994V17.2869H626.084V16.0604H634.037C634.037 15.2895 633.881 14.5968 633.568 13.9822C633.261 13.3625 632.831 12.8729 632.279 12.5135C631.732 12.1541 631.1 11.9744 630.381 11.9744C629.62 11.9744 628.951 12.1776 628.373 12.5838C627.795 12.9901 627.342 13.5265 627.014 14.1932C626.691 14.8598 626.527 15.589 626.521 16.3807V17.1151C626.521 18.0682 626.686 18.9015 627.014 19.6151C627.347 20.3234 627.818 20.8729 628.428 21.2635C629.037 21.6541 629.758 21.8494 630.592 21.8494C631.159 21.8494 631.657 21.7609 632.084 21.5838C632.516 21.4067 632.878 21.1697 633.17 20.8729C633.467 20.5708 633.691 20.2401 633.842 19.8807L635.162 20.3104C634.98 20.8156 634.68 21.2817 634.264 21.7088C633.852 22.1359 633.337 22.4796 632.717 22.7401C632.102 22.9953 631.394 23.1229 630.592 23.1229Z" fill="black"/>
<path d="M647.375 22.8729L643.75 10.8729H645.219L648.062 20.7713H648.164L651 10.8729H652.477L655.289 20.7479H655.398L658.242 10.8729H659.711L656.086 22.8729H654.648L651.805 13.0369H651.656L648.812 22.8729H647.375Z" fill="black"/>
<path d="M665.766 23.1463C665.042 23.1463 664.38 23.0057 663.781 22.7244C663.182 22.438 662.706 22.0265 662.352 21.4901C661.997 20.9484 661.82 20.2921 661.82 19.5213C661.82 18.9276 661.932 18.4276 662.156 18.0213C662.38 17.6151 662.698 17.2817 663.109 17.0213C663.521 16.7609 664.008 16.5552 664.57 16.4041C665.133 16.2531 665.753 16.1359 666.43 16.0526C667.102 15.9692 667.669 15.8963 668.133 15.8338C668.602 15.7713 668.958 15.6723 669.203 15.5369C669.448 15.4015 669.57 15.1828 669.57 14.8807V14.5994C669.57 13.7817 669.326 13.1385 668.836 12.6697C668.352 12.1958 667.654 11.9588 666.742 11.9588C665.878 11.9588 665.172 12.1489 664.625 12.5291C664.083 12.9093 663.703 13.3572 663.484 13.8729L662.164 13.3963C662.435 12.7401 662.81 12.2166 663.289 11.826C663.768 11.4302 664.305 11.1463 664.898 10.9744C665.492 10.7973 666.094 10.7088 666.703 10.7088C667.161 10.7088 667.638 10.7687 668.133 10.8885C668.633 11.0083 669.096 11.2166 669.523 11.5135C669.951 11.8052 670.297 12.214 670.562 12.7401C670.828 13.2609 670.961 13.9223 670.961 14.7244V22.8729H669.57V20.9744H669.484C669.318 21.3286 669.07 21.6723 668.742 22.0057C668.414 22.339 668.003 22.6125 667.508 22.826C667.013 23.0395 666.432 23.1463 665.766 23.1463ZM665.953 21.8729C666.693 21.8729 667.333 21.7088 667.875 21.3807C668.417 21.0526 668.833 20.6177 669.125 20.076C669.422 19.5291 669.57 18.9276 669.57 18.2713V16.5369C669.466 16.6359 669.292 16.7244 669.047 16.8026C668.807 16.8807 668.529 16.951 668.211 17.0135C667.898 17.0708 667.586 17.1203 667.273 17.1619C666.961 17.2036 666.68 17.2401 666.43 17.2713C665.753 17.3546 665.174 17.4848 664.695 17.6619C664.216 17.839 663.849 18.0838 663.594 18.3963C663.339 18.7036 663.211 19.0994 663.211 19.5838C663.211 20.313 663.471 20.8781 663.992 21.2791C664.513 21.675 665.167 21.8729 665.953 21.8729Z" fill="black"/>
<path d="M676.051 6.87287V22.8729H674.66V6.87287H676.051Z" fill="black"/>
<path d="M681.121 6.87287V22.8729H679.73V6.87287H681.121Z" fill="black"/>
<path d="M689.652 23.1229C688.533 23.1229 687.564 22.8625 686.746 22.3416C685.928 21.8156 685.296 21.089 684.848 20.1619C684.405 19.2296 684.184 18.1567 684.184 16.9432C684.184 15.7348 684.405 14.6619 684.848 13.7244C685.296 12.7817 685.913 12.0447 686.699 11.5135C687.491 10.977 688.405 10.7088 689.441 10.7088C690.092 10.7088 690.72 10.8286 691.324 11.0682C691.928 11.3026 692.47 11.6645 692.949 12.1541C693.434 12.6385 693.816 13.2505 694.098 13.9901C694.379 14.7244 694.52 15.5942 694.52 16.5994V17.2869H685.145V16.0604H693.098C693.098 15.2895 692.941 14.5968 692.629 13.9822C692.322 13.3625 691.892 12.8729 691.34 12.5135C690.793 12.1541 690.16 11.9744 689.441 11.9744C688.681 11.9744 688.012 12.1776 687.434 12.5838C686.855 12.9901 686.402 13.5265 686.074 14.1932C685.751 14.8598 685.587 15.589 685.582 16.3807V17.1151C685.582 18.0682 685.746 18.9015 686.074 19.6151C686.408 20.3234 686.879 20.8729 687.488 21.2635C688.098 21.6541 688.819 21.8494 689.652 21.8494C690.22 21.8494 690.717 21.7609 691.145 21.5838C691.577 21.4067 691.939 21.1697 692.23 20.8729C692.527 20.5708 692.751 20.2401 692.902 19.8807L694.223 20.3104C694.04 20.8156 693.741 21.2817 693.324 21.7088C692.913 22.1359 692.397 22.4796 691.777 22.7401C691.163 22.9953 690.454 23.1229 689.652 23.1229Z" fill="black"/>
<path d="M702.311 10.8729V12.0838H696.584V10.8729H702.311ZM698.373 7.99787H699.771V19.7401C699.771 20.2401 699.857 20.6333 700.029 20.9197C700.201 21.201 700.425 21.4015 700.701 21.5213C700.977 21.6359 701.271 21.6932 701.584 21.6932C701.766 21.6932 701.923 21.6828 702.053 21.6619C702.183 21.6359 702.298 21.6098 702.396 21.5838L702.693 22.8416C702.558 22.8937 702.391 22.9406 702.193 22.9822C701.995 23.0291 701.751 23.0526 701.459 23.0526C700.949 23.0526 700.456 22.9406 699.982 22.7166C699.514 22.4927 699.128 22.1593 698.826 21.7166C698.524 21.2739 698.373 20.7244 698.373 20.0682V7.99787Z" fill="black"/>
<path d="M713.316 13.5057L712.043 13.8651C711.918 13.5057 711.741 13.1802 711.512 12.8885C711.283 12.5968 710.983 12.3651 710.613 12.1932C710.249 12.0213 709.796 11.9354 709.254 11.9354C708.441 11.9354 707.775 12.1281 707.254 12.5135C706.733 12.8989 706.473 13.3963 706.473 14.0057C706.473 14.5213 706.65 14.9406 707.004 15.2635C707.363 15.5812 707.915 15.8338 708.66 16.0213L710.473 16.4666C711.478 16.7114 712.23 17.0994 712.73 17.6307C713.236 18.1619 713.488 18.8286 713.488 19.6307C713.488 20.3078 713.301 20.9093 712.926 21.4354C712.551 21.9614 712.027 22.3755 711.355 22.6776C710.689 22.9744 709.915 23.1229 709.035 23.1229C707.863 23.1229 706.897 22.8598 706.137 22.3338C705.376 21.8026 704.889 21.0369 704.676 20.0369L706.012 19.7088C706.184 20.4223 706.52 20.9614 707.02 21.326C707.525 21.6906 708.189 21.8729 709.012 21.8729C709.934 21.8729 710.671 21.6671 711.223 21.2557C711.775 20.839 712.051 20.3182 712.051 19.6932C712.051 19.2088 711.889 18.8026 711.566 18.4744C711.243 18.1411 710.754 17.8963 710.098 17.7401L708.137 17.2713C707.095 17.0213 706.324 16.6255 705.824 16.0838C705.324 15.5421 705.074 14.8703 705.074 14.0682C705.074 13.4067 705.254 12.826 705.613 12.326C705.973 11.8208 706.467 11.425 707.098 11.1385C707.728 10.852 708.447 10.7088 709.254 10.7088C710.353 10.7088 711.23 10.9588 711.887 11.4588C712.548 11.9536 713.025 12.6359 713.316 13.5057Z" fill="black"/>
<path d="M719.908 16.1229C719.908 17.9979 719.671 19.7687 719.197 21.4354C718.723 23.102 718.044 24.6645 717.158 26.1229H715.893C716.273 25.5083 716.619 24.813 716.932 24.0369C717.249 23.2609 717.523 22.4328 717.752 21.5526C717.981 20.6723 718.158 19.7713 718.283 18.8494C718.408 17.9276 718.471 17.0187 718.471 16.1229C718.471 14.9197 718.361 13.7062 718.143 12.4822C717.924 11.2583 717.619 10.0968 717.229 8.99787C716.843 7.89891 716.398 6.94058 715.893 6.12287H717.158C718.044 7.58641 718.723 9.15152 719.197 10.8182C719.671 12.4848 719.908 14.2531 719.908 16.1229Z" fill="black"/>
</svg>
