<svg width="48" height="23" viewBox="0 0 48 23" fill="none" xmlns="http://www.w3.org/2000/svg">
<path d="M8.12652 0.299398V22.1982H5.47471V3.07952H5.34639L0 6.62953V3.93494L5.47471 0.299398H8.12652Z" fill="black"/>
<path d="M21.5673 22.4976C19.9563 22.4976 18.5841 22.0592 17.4506 21.1824C16.3172 20.2985 15.4511 19.0189 14.8523 17.3437C14.2535 15.6614 13.9541 13.6297 13.9541 11.2488C13.9541 8.88214 14.2535 6.8612 14.8523 5.186C15.4582 3.50367 16.3279 2.22054 17.4613 1.3366C18.6019 0.445532 19.9706 0 21.5673 0C23.1641 0 24.5292 0.445532 25.6627 1.3366C26.8032 2.22054 27.6729 3.50367 28.2717 5.186C28.8776 6.8612 29.1806 8.88214 29.1806 11.2488C29.1806 13.6297 28.8812 15.6614 28.2824 17.3437C27.6836 19.0189 26.8175 20.2985 25.6841 21.1824C24.5506 22.0592 23.1784 22.4976 21.5673 22.4976ZM21.5673 20.1452C23.1641 20.1452 24.4045 19.3753 25.2884 17.8356C26.1724 16.2958 26.6143 14.1002 26.6143 11.2488C26.6143 9.35262 26.4112 7.73801 26.0049 6.40498C25.6057 5.07194 25.0282 4.05613 24.2726 3.35753C23.5241 2.65894 22.6224 2.30964 21.5673 2.30964C19.9848 2.30964 18.748 3.09022 17.857 4.65136C16.9659 6.20538 16.5204 8.40453 16.5204 11.2488C16.5204 13.145 16.72 14.756 17.1191 16.0819C17.5183 17.4079 18.0922 18.4165 18.8407 19.108C19.5963 19.7995 20.5052 20.1452 21.5673 20.1452Z" fill="black"/>
<path d="M40.3866 22.4976C38.7756 22.4976 37.4034 22.0592 36.2699 21.1824C35.1365 20.2985 34.2704 19.0189 33.6716 17.3437C33.0728 15.6614 32.7734 13.6297 32.7734 11.2488C32.7734 8.88214 33.0728 6.8612 33.6716 5.186C34.2775 3.50367 35.1472 2.22054 36.2806 1.3366C37.4212 0.445532 38.7899 0 40.3866 0C41.9834 0 43.3486 0.445532 44.482 1.3366C45.6226 2.22054 46.4922 3.50367 47.091 5.186C47.697 6.8612 47.9999 8.88214 47.9999 11.2488C47.9999 13.6297 47.7005 15.6614 47.1017 17.3437C46.5029 19.0189 45.6368 20.2985 44.5034 21.1824C43.3699 22.0592 41.9977 22.4976 40.3866 22.4976ZM40.3866 20.1452C41.9834 20.1452 43.2238 19.3753 44.1077 17.8356C44.9917 16.2958 45.4336 14.1002 45.4336 11.2488C45.4336 9.35262 45.2305 7.73801 44.8242 6.40498C44.425 5.07194 43.8475 4.05613 43.0919 3.35753C42.3434 2.65894 41.4417 2.30964 40.3866 2.30964C38.8041 2.30964 37.5673 3.09022 36.6763 4.65136C35.7852 6.20538 35.3397 8.40453 35.3397 11.2488C35.3397 13.145 35.5393 14.756 35.9385 16.0819C36.3377 17.4079 36.9115 18.4165 37.66 19.108C38.4156 19.7995 39.3245 20.1452 40.3866 20.1452Z" fill="black"/>
</svg>
