<svg width="53" height="53" viewBox="0 0 53 53" fill="none" xmlns="http://www.w3.org/2000/svg">
<path d="M29.129 4H19.7682C15.537 4 13.4214 4 12.1069 5.46447C10.7925 6.92893 10.7925 9.28595 10.7925 14V39C10.7925 43.714 10.7925 46.0711 12.1069 47.5355C13.4214 49 15.537 49 19.7682 49H33.2318C37.463 49 39.5786 49 40.8931 47.5355C42.2076 46.0711 42.2076 43.714 42.2076 39V18.5711C42.2076 17.5492 42.2076 17.0383 42.0368 16.5788C41.866 16.1194 41.5417 15.7581 40.8931 15.0355L32.3024 5.46447C31.6538 4.74189 31.3295 4.3806 30.9171 4.1903C30.5048 4 30.0462 4 29.129 4Z" stroke="white" stroke-width="2"/>
</svg>
