<svg width="67" height="23" viewBox="0 0 67 23" fill="none" xmlns="http://www.w3.org/2000/svg">
<path d="M0 22.0065V0H7.69367C9.22667 0 10.491 0.265052 11.4868 0.795156C12.4825 1.3181 13.2239 2.02371 13.7111 2.91199C14.1982 3.79311 14.4417 4.77093 14.4417 5.84547C14.4417 6.79106 14.2734 7.57189 13.9367 8.18795C13.6072 8.80402 13.1702 9.29114 12.6258 9.64932C12.0885 10.0075 11.5047 10.2726 10.8743 10.4445V10.6594C11.5477 10.7024 12.2246 10.9388 12.9052 11.3686C13.5857 11.7984 14.1552 12.4145 14.6137 13.2168C15.0721 14.0191 15.3014 15.0005 15.3014 16.161C15.3014 17.2642 15.0506 18.2563 14.5492 19.1375C14.0477 20.0186 13.2562 20.717 12.1745 21.2328C11.0928 21.7486 9.68514 22.0065 7.95155 22.0065H0ZM2.66485 19.6425H7.95155C9.6923 19.6425 10.928 19.3058 11.6587 18.6324C12.3965 17.9519 12.7655 17.1281 12.7655 16.161C12.7655 15.416 12.5756 14.7283 12.196 14.0979C11.8163 13.4603 11.2754 12.9517 10.5734 12.5721C9.87139 12.1852 9.04042 11.9918 8.0805 11.9918H2.66485V19.6425ZM2.66485 9.67081H7.6077C8.41002 9.67081 9.13354 9.51321 9.77826 9.19801C10.4301 8.88282 10.9459 8.43868 11.3256 7.86559C11.7124 7.29251 11.9058 6.61913 11.9058 5.84547C11.9058 4.87839 11.5692 4.05816 10.8958 3.38478C10.2224 2.70424 9.15503 2.36398 7.69367 2.36398H2.66485V9.67081Z" fill="#A2A2A2"/>
<path d="M24.1931 22.3933C23.1473 22.3933 22.1981 22.1963 21.3456 21.8023C20.4932 21.4011 19.8162 20.8245 19.3148 20.0723C18.8133 19.313 18.5626 18.396 18.5626 17.3215C18.5626 16.3759 18.7488 15.6094 19.1213 15.022C19.4938 14.4274 19.9917 13.9618 20.6149 13.6251C21.2382 13.2884 21.9259 13.0377 22.6781 12.8729C23.4374 12.701 24.2003 12.5649 24.9668 12.4646C25.9697 12.3357 26.7828 12.2389 27.406 12.1745C28.0364 12.1028 28.4949 11.9846 28.7814 11.8199C29.0751 11.6551 29.222 11.3686 29.222 10.9603V10.8743C29.222 9.81408 28.9318 8.99027 28.3516 8.40286C27.7785 7.81545 26.9081 7.52174 25.7405 7.52174C24.5298 7.52174 23.5807 7.78679 22.893 8.3169C22.2053 8.847 21.7217 9.41292 21.4423 10.0147L19.0354 9.15503C19.4652 8.15213 20.0383 7.37131 20.7546 6.81255C21.4782 6.24663 22.2661 5.85263 23.1186 5.63056C23.9782 5.40133 24.8235 5.28671 25.6545 5.28671C26.1846 5.28671 26.7935 5.35118 27.4812 5.48013C28.1761 5.60191 28.8459 5.85621 29.4906 6.24304C30.1425 6.62988 30.6833 7.21371 31.1131 7.99454C31.543 8.77536 31.7579 9.82125 31.7579 11.1322V22.0065H29.222V19.7714H29.093C28.9211 20.1296 28.6346 20.5129 28.2334 20.9212C27.8322 21.3295 27.2985 21.6769 26.6323 21.9635C25.9661 22.25 25.1531 22.3933 24.1931 22.3933ZM24.58 20.1153C25.5829 20.1153 26.4282 19.9183 27.1159 19.5243C27.8107 19.1303 28.3337 18.6217 28.6847 17.9985C29.0429 17.3752 29.222 16.7198 29.222 16.0321V13.7111C29.1145 13.84 28.8781 13.9582 28.5128 14.0657C28.1546 14.1659 27.7391 14.2555 27.2663 14.3343C26.8007 14.4059 26.3458 14.4704 25.9017 14.5277C25.4647 14.5779 25.1101 14.6208 24.8379 14.6567C24.1788 14.7426 23.5628 14.8823 22.9897 15.0757C22.4237 15.262 21.9653 15.5449 21.6143 15.9246C21.2704 16.2971 21.0985 16.8057 21.0985 17.4504C21.0985 18.3316 21.4244 18.9978 22.0763 19.4491C22.7354 19.8932 23.5699 20.1153 24.58 20.1153Z" fill="#A2A2A2"/>
<path d="M43.0915 22.3503C41.5442 22.3503 40.2118 21.985 39.0943 21.2543C37.9767 20.5236 37.1171 19.5171 36.5154 18.2348C35.9136 16.9526 35.6128 15.4876 35.6128 13.84C35.6128 12.1637 35.9208 10.6845 36.5369 9.40218C37.1601 8.11274 38.0269 7.10626 39.1372 6.38274C40.2547 5.65205 41.5585 5.28671 43.0485 5.28671C44.209 5.28671 45.2549 5.50162 46.1862 5.93143C47.1174 6.36124 47.8804 6.96298 48.4749 7.73665C49.0695 8.51031 49.4384 9.41292 49.5817 10.4445H47.0458C46.8524 9.6923 46.4226 9.02609 45.7564 8.44584C45.0973 7.85843 44.209 7.56472 43.0915 7.56472C42.1029 7.56472 41.2362 7.82261 40.4911 8.33839C39.7533 8.847 39.1766 9.56694 38.7611 10.4982C38.3528 11.4223 38.1487 12.5076 38.1487 13.754C38.1487 15.0292 38.3492 16.1395 38.7504 17.0851C39.1587 18.0307 39.7318 18.765 40.4697 19.2879C41.2147 19.8108 42.0886 20.0723 43.0915 20.0723C43.7506 20.0723 44.3487 19.9577 44.886 19.7285C45.4233 19.4992 45.8781 19.1697 46.2507 18.7399C46.6232 18.3101 46.8882 17.7943 47.0458 17.1926H49.5817C49.4384 18.1668 49.0838 19.0443 48.5179 19.8252C47.9592 20.5988 47.2177 21.2149 46.2936 21.6734C45.3767 22.1247 44.3093 22.3503 43.0915 22.3503Z" fill="#A2A2A2"/>
<path d="M55.6528 15.9891L55.6098 12.8514H56.1256L63.3465 5.50162H66.4841L58.7905 13.2812H58.5756L55.6528 15.9891ZM53.2889 22.0065V0H55.8248V22.0065H53.2889ZM63.7763 22.0065L57.3291 13.84L59.1343 12.0778L66.9999 22.0065H63.7763Z" fill="#A2A2A2"/>
</svg>
