<svg width="1161" height="53" viewBox="0 0 1161 53" fill="none" xmlns="http://www.w3.org/2000/svg">
<path d="M15 17.6421V15.2983H31.3636V17.6421H24.5028V37.1165H21.8608V17.6421H15Z" fill="black"/>
<path d="M39.375 37.4574C37.8977 37.4574 36.6016 37.1059 35.4865 36.4027C34.3786 35.6996 33.5121 34.716 32.8871 33.4517C32.2692 32.1875 31.9602 30.7103 31.9602 29.0199C31.9602 27.3154 32.2692 25.8275 32.8871 24.5562C33.5121 23.2848 34.3786 22.2976 35.4865 21.5945C36.6016 20.8914 37.8977 20.5398 39.375 20.5398C40.8523 20.5398 42.1449 20.8914 43.2528 21.5945C44.3679 22.2976 45.2344 23.2848 45.8523 24.5562C46.4773 25.8275 46.7898 27.3154 46.7898 29.0199C46.7898 30.7103 46.4773 32.1875 45.8523 33.4517C45.2344 34.716 44.3679 35.6996 43.2528 36.4027C42.1449 37.1059 40.8523 37.4574 39.375 37.4574ZM39.375 35.1989C40.4972 35.1989 41.4205 34.9113 42.1449 34.336C42.8693 33.7607 43.4055 33.0043 43.7536 32.0668C44.1016 31.1293 44.2756 30.1137 44.2756 29.0199C44.2756 27.9262 44.1016 26.907 43.7536 25.9624C43.4055 25.0178 42.8693 24.2543 42.1449 23.6719C41.4205 23.0895 40.4972 22.7983 39.375 22.7983C38.2528 22.7983 37.3295 23.0895 36.6051 23.6719C35.8807 24.2543 35.3445 25.0178 34.9964 25.9624C34.6484 26.907 34.4744 27.9262 34.4744 29.0199C34.4744 30.1137 34.6484 31.1293 34.9964 32.0668C35.3445 33.0043 35.8807 33.7607 36.6051 34.336C37.3295 34.9113 38.2528 35.1989 39.375 35.1989Z" fill="black"/>
<path d="M52.9714 31.1506L52.9288 28.0398H53.4402L60.5993 20.7529H63.71L56.0822 28.466H55.8691L52.9714 31.1506ZM50.6277 37.1165V15.2983H53.1419V37.1165H50.6277ZM61.0254 37.1165L54.6333 29.0199L56.4231 27.2728L64.2214 37.1165H61.0254Z" fill="black"/>
<path d="M73.133 37.4574C71.5563 37.4574 70.1962 37.1094 69.0527 36.4134C67.9164 35.7103 67.0392 34.7302 66.4213 33.4731C65.8105 32.2089 65.5051 30.7387 65.5051 29.0625C65.5051 27.3864 65.8105 25.9091 66.4213 24.6307C67.0392 23.3452 67.8986 22.3438 68.9995 21.6265C70.1074 20.902 71.4 20.5398 72.8773 20.5398C73.7296 20.5398 74.5712 20.6819 75.4022 20.966C76.2331 21.25 76.9895 21.7117 77.6713 22.3509C78.3532 22.983 78.8965 23.8211 79.3013 24.8651C79.7061 25.9091 79.9086 27.1946 79.9086 28.7216V29.787H67.2949V27.6137H77.3517C77.3517 26.6904 77.1671 25.8665 76.7978 25.1421C76.4355 24.4177 75.9171 23.8459 75.2424 23.4269C74.5748 23.0079 73.7864 22.7983 72.8773 22.7983C71.8759 22.7983 71.0094 23.0469 70.2779 23.5441C69.5534 24.0341 68.9959 24.6733 68.6053 25.4617C68.2147 26.25 68.0194 27.0952 68.0194 27.9972V29.4461C68.0194 30.6819 68.2324 31.7294 68.6586 32.5888C69.0918 33.4411 69.6919 34.091 70.459 34.5384C71.226 34.9787 72.1174 35.1989 73.133 35.1989C73.7935 35.1989 74.3901 35.1066 74.9228 34.9219C75.4625 34.7302 75.9277 34.4461 76.3184 34.0696C76.709 33.6861 77.0108 33.2103 77.2239 32.6421L79.6529 33.3239C79.3972 34.1478 78.9675 34.8722 78.3638 35.4972C77.7601 36.1151 77.0144 36.5981 76.1266 36.9461C75.2388 37.287 74.2409 37.4574 73.133 37.4574Z" fill="black"/>
<path d="M86.2473 27.2728V37.1165H83.7331V20.7529H86.1621V23.3097H86.3752C86.7587 22.4787 87.3411 21.8111 88.1223 21.3069C88.9036 20.7955 89.9121 20.5398 91.1479 20.5398C92.2559 20.5398 93.2253 20.7671 94.0563 21.2216C94.8873 21.6691 95.5336 22.3509 95.9952 23.2671C96.4569 24.1762 96.6877 25.3267 96.6877 26.7188V37.1165H94.1735V26.8892C94.1735 25.6037 93.8397 24.6023 93.1721 23.885C92.5044 23.1606 91.5882 22.7983 90.4235 22.7983C89.6209 22.7983 88.9036 22.9723 88.2715 23.3204C87.6465 23.6684 87.1529 24.1762 86.7907 24.8438C86.4285 25.5114 86.2473 26.3211 86.2473 27.2728Z" fill="black"/>
<path d="M127.362 15.2983V37.1165H124.805L112.915 19.9858H112.702V37.1165H110.06V15.2983H112.617L124.549 32.4716H124.762V15.2983H127.362Z" fill="black"/>
<path d="M137.123 37.5C136.086 37.5 135.145 37.3047 134.3 36.9141C133.454 36.5164 132.783 35.9446 132.286 35.1989C131.789 34.4461 131.54 33.537 131.54 32.4716C131.54 31.5341 131.725 30.7742 132.094 30.1918C132.464 29.6023 132.957 29.1407 133.575 28.8069C134.193 28.4731 134.875 28.2245 135.621 28.0611C136.373 27.8907 137.13 27.7557 137.89 27.6563C138.884 27.5285 139.69 27.4326 140.308 27.3687C140.933 27.2976 141.388 27.1804 141.672 27.0171C141.963 26.8537 142.108 26.5696 142.108 26.1648V26.0796C142.108 25.0285 141.821 24.2117 141.246 23.6293C140.677 23.0469 139.814 22.7557 138.657 22.7557C137.456 22.7557 136.515 23.0185 135.834 23.5441C135.152 24.0696 134.672 24.6307 134.395 25.2273L132.009 24.375C132.435 23.3807 133.003 22.6066 133.714 22.0526C134.431 21.4915 135.212 21.1009 136.057 20.8807C136.91 20.6535 137.748 20.5398 138.572 20.5398C139.097 20.5398 139.701 20.6037 140.383 20.7316C141.072 20.8523 141.736 21.1044 142.375 21.488C143.021 21.8715 143.557 22.4503 143.983 23.2245C144.41 23.9986 144.623 25.0356 144.623 26.3353V37.1165H142.108V34.9006H141.981C141.81 35.2557 141.526 35.6357 141.128 36.0405C140.731 36.4454 140.202 36.7898 139.541 37.0739C138.881 37.358 138.074 37.5 137.123 37.5ZM137.506 35.2415C138.501 35.2415 139.339 35.0462 140.02 34.6556C140.709 34.265 141.228 33.7607 141.576 33.1428C141.931 32.5249 142.108 31.875 142.108 31.1932V28.8921C142.002 29.0199 141.768 29.1371 141.405 29.2437C141.05 29.3431 140.638 29.4319 140.17 29.51C139.708 29.581 139.257 29.6449 138.817 29.7017C138.383 29.7515 138.032 29.7941 137.762 29.8296C137.108 29.9148 136.498 30.0533 135.93 30.2451C135.368 30.4297 134.914 30.7103 134.566 31.0867C134.225 31.456 134.055 31.9603 134.055 32.5995C134.055 33.4731 134.378 34.1336 135.024 34.581C135.677 35.0214 136.505 35.2415 137.506 35.2415Z" fill="black"/>
<path d="M149.212 37.1165V20.7529H151.641V23.3097H151.854C152.195 22.4361 152.745 21.7579 153.505 21.2749C154.265 20.7848 155.178 20.5398 156.243 20.5398C157.322 20.5398 158.221 20.7848 158.938 21.2749C159.663 21.7579 160.227 22.4361 160.632 23.3097H160.803C161.222 22.4645 161.85 21.7934 162.688 21.2962C163.526 20.7919 164.531 20.5398 165.703 20.5398C167.166 20.5398 168.363 20.9979 169.293 21.9141C170.224 22.8232 170.689 24.2401 170.689 26.1648V37.1165H168.175V26.1648C168.175 24.9574 167.844 24.0945 167.184 23.576C166.523 23.0576 165.746 22.7983 164.851 22.7983C163.7 22.7983 162.809 23.1464 162.177 23.8424C161.545 24.5313 161.229 25.4049 161.229 26.4631V37.1165H158.672V25.9091C158.672 24.9787 158.37 24.2294 157.766 23.6613C157.163 23.086 156.385 22.7983 155.433 22.7983C154.78 22.7983 154.169 22.9723 153.601 23.3204C153.04 23.6684 152.585 24.1513 152.237 24.7692C151.896 25.38 151.726 26.0867 151.726 26.8892V37.1165H149.212Z" fill="black"/>
<path d="M182.147 37.4574C180.57 37.4574 179.21 37.1094 178.066 36.4134C176.93 35.7103 176.053 34.7302 175.435 33.4731C174.824 32.2089 174.519 30.7387 174.519 29.0625C174.519 27.3864 174.824 25.9091 175.435 24.6307C176.053 23.3452 176.912 22.3438 178.013 21.6265C179.121 20.902 180.414 20.5398 181.891 20.5398C182.743 20.5398 183.585 20.6819 184.416 20.966C185.247 21.25 186.003 21.7117 186.685 22.3509C187.367 22.983 187.91 23.8211 188.315 24.8651C188.72 25.9091 188.922 27.1946 188.922 28.7216V29.787H176.309V27.6137H186.365C186.365 26.6904 186.181 25.8665 185.811 25.1421C185.449 24.4177 184.931 23.8459 184.256 23.4269C183.588 23.0079 182.8 22.7983 181.891 22.7983C180.89 22.7983 180.023 23.0469 179.292 23.5441C178.567 24.0341 178.01 24.6733 177.619 25.4617C177.228 26.25 177.033 27.0952 177.033 27.9972V29.4461C177.033 30.6819 177.246 31.7294 177.672 32.5888C178.105 33.4411 178.706 34.091 179.473 34.5384C180.24 34.9787 181.131 35.1989 182.147 35.1989C182.807 35.1989 183.404 35.1066 183.936 34.9219C184.476 34.7302 184.941 34.4461 185.332 34.0696C185.723 33.6861 186.024 33.2103 186.238 32.6421L188.667 33.3239C188.411 34.1478 187.981 34.8722 187.377 35.4972C186.774 36.1151 186.028 36.5981 185.14 36.9461C184.252 37.287 183.255 37.4574 182.147 37.4574Z" fill="black"/>
<path d="M362.564 15.2983V37.1165H359.922V15.2983H362.564Z" fill="black"/>
<path d="M385.418 22.1165H382.776C382.62 21.3565 382.346 20.6889 381.956 20.1136C381.572 19.5384 381.104 19.0554 380.55 18.6648C380.003 18.267 379.395 17.9688 378.728 17.7699C378.06 17.571 377.364 17.4716 376.64 17.4716C375.319 17.4716 374.122 17.8054 373.05 18.473C371.984 19.1406 371.135 20.1243 370.503 21.424C369.878 22.7237 369.566 24.3182 369.566 26.2074C369.566 28.0966 369.878 29.6911 370.503 30.9908C371.135 32.2905 371.984 33.2741 373.05 33.9418C374.122 34.6094 375.319 34.9432 376.64 34.9432C377.364 34.9432 378.06 34.8438 378.728 34.6449C379.395 34.446 380.003 34.1513 380.55 33.7607C381.104 33.3629 381.572 32.8764 381.956 32.3011C382.346 31.7188 382.62 31.0511 382.776 30.2983H385.418C385.219 31.4134 384.857 32.4112 384.331 33.2919C383.806 34.1726 383.153 34.9219 382.371 35.5398C381.59 36.1506 380.713 36.6158 379.74 36.9354C378.774 37.255 377.741 37.4148 376.64 37.4148C374.779 37.4148 373.124 36.9602 371.675 36.0511C370.226 35.142 369.086 33.8494 368.256 32.1733C367.425 30.4972 367.009 28.5085 367.009 26.2074C367.009 23.9062 367.425 21.9176 368.256 20.2415C369.086 18.5653 370.226 17.2727 371.675 16.3636C373.124 15.4545 374.779 15 376.64 15C377.741 15 378.774 15.1598 379.74 15.4794C380.713 15.799 381.59 16.2678 382.371 16.8857C383.153 17.4964 383.806 18.2422 384.331 19.1229C384.857 19.9964 385.219 20.9943 385.418 22.1165Z" fill="black"/>
<path d="M389.687 37.1165V15.2983H392.33V25.0142H403.963V15.2983H406.605V37.1165H403.963V27.358H392.33V37.1165H389.687Z" fill="black"/>
<path d="M410.701 17.642V15.2983H427.065V17.642H420.204V37.1165H417.562V17.642H410.701Z" fill="black"/>
<path d="M443.074 20.7528C442.947 19.6733 442.428 18.8352 441.519 18.2386C440.61 17.642 439.495 17.3438 438.174 17.3438C437.208 17.3438 436.363 17.5 435.638 17.8125C434.921 18.125 434.36 18.5547 433.955 19.1016C433.557 19.6484 433.358 20.2699 433.358 20.9659C433.358 21.5483 433.497 22.049 433.774 22.468C434.058 22.88 434.42 23.2244 434.861 23.5014C435.301 23.7713 435.763 23.995 436.246 24.1726C436.729 24.343 437.172 24.4815 437.577 24.5881L439.793 25.1847C440.361 25.3338 440.993 25.5398 441.689 25.8026C442.393 26.0653 443.064 26.424 443.703 26.8786C444.349 27.326 444.882 27.9013 445.301 28.6044C445.72 29.3075 445.93 30.1705 445.93 31.1932C445.93 32.3722 445.621 33.4375 445.003 34.3892C444.392 35.3409 443.497 36.0973 442.318 36.6584C441.146 37.2195 439.722 37.5 438.046 37.5C436.483 37.5 435.131 37.2479 433.987 36.7436C432.851 36.2393 431.956 35.5362 431.302 34.6342C430.656 33.7322 430.29 32.6847 430.205 31.4915H432.932C433.003 32.3153 433.28 32.9972 433.763 33.5369C434.253 34.0696 434.871 34.4673 435.617 34.7301C436.37 34.9858 437.18 35.1136 438.046 35.1136C439.055 35.1136 439.96 34.9503 440.763 34.6236C441.565 34.2898 442.201 33.8281 442.67 33.2386C443.138 32.642 443.373 31.946 443.373 31.1506C443.373 30.4261 443.17 29.8366 442.765 29.3821C442.361 28.9276 441.828 28.5582 441.167 28.2741C440.507 27.9901 439.793 27.7415 439.026 27.5284L436.341 26.7614C434.637 26.2713 433.287 25.5717 432.293 24.6626C431.299 23.7536 430.802 22.5639 430.802 21.0938C430.802 19.8722 431.132 18.8068 431.792 17.8977C432.46 16.9815 433.355 16.2713 434.477 15.767C435.606 15.2557 436.867 15 438.259 15C439.665 15 440.915 15.2521 442.009 15.7564C443.103 16.2536 443.969 16.9354 444.608 17.8018C445.255 18.6683 445.596 19.652 445.631 20.7528H443.074Z" fill="black"/>
<path d="M449.08 17.642V15.2983H465.444V17.642H458.583V37.1165H455.941V17.642H449.08Z" fill="black"/>
<path d="M476.254 37.1165H469.521V15.2983H476.553C478.669 15.2983 480.48 15.7351 481.986 16.6087C483.492 17.4751 484.646 18.7216 485.448 20.348C486.251 21.9673 486.652 23.9062 486.652 26.1648C486.652 28.4375 486.247 30.3942 485.438 32.0348C484.628 33.6683 483.449 34.9254 481.901 35.8061C480.352 36.6797 478.47 37.1165 476.254 37.1165ZM472.164 34.7727H476.084C477.888 34.7727 479.383 34.4247 480.569 33.7287C481.755 33.0327 482.639 32.0419 483.222 30.7564C483.804 29.4709 484.095 27.9403 484.095 26.1648C484.095 24.4034 483.808 22.8871 483.232 21.6158C482.657 20.3374 481.798 19.3572 480.654 18.6754C479.511 17.9865 478.087 17.642 476.382 17.642H472.164V34.7727Z" fill="black"/>
<path d="M490.953 37.1165H488.184L496.195 15.2983H498.922L506.934 37.1165H504.164L497.644 18.75H497.473L490.953 37.1165ZM491.976 28.5938H503.141V30.9375H491.976V28.5938Z" fill="black"/>
<path d="M516.767 37.4148C515.517 37.4148 514.391 37.1662 513.39 36.669C512.388 36.1719 511.586 35.4901 510.982 34.6236C510.378 33.7571 510.048 32.7699 509.991 31.6619H512.548C512.647 32.6491 513.095 33.4659 513.89 34.1122C514.693 34.7514 515.652 35.071 516.767 35.071C517.662 35.071 518.457 34.8615 519.153 34.4425C519.856 34.0234 520.407 33.4482 520.804 32.7166C521.209 31.978 521.412 31.1435 521.412 30.2131C521.412 29.2614 521.202 28.4126 520.783 27.6669C520.371 26.9141 519.803 26.321 519.078 25.8878C518.354 25.4545 517.527 25.2344 516.596 25.2273C515.929 25.2202 515.243 25.3232 514.54 25.5362C513.837 25.7422 513.258 26.0085 512.804 26.3352L510.332 26.0369L511.653 15.2983H522.988V17.642H513.869L513.102 24.0767H513.23C513.677 23.7216 514.238 23.4268 514.913 23.1925C515.588 22.9581 516.291 22.8409 517.022 22.8409C518.358 22.8409 519.547 23.1605 520.591 23.7997C521.642 24.4318 522.466 25.2983 523.063 26.3991C523.667 27.5 523.968 28.7571 523.968 30.1705C523.968 31.5625 523.656 32.8054 523.031 33.8991C522.413 34.9858 521.561 35.8452 520.474 36.4773C519.387 37.1023 518.152 37.4148 516.767 37.4148Z" fill="black"/>
<path d="M535.445 37.4148C534.55 37.4006 533.655 37.2301 532.76 36.9034C531.865 36.5767 531.048 36.0263 530.31 35.2521C529.571 34.4709 528.978 33.4162 528.531 32.0881C528.083 30.7528 527.86 29.0767 527.86 27.0597C527.86 25.1278 528.041 23.4162 528.403 21.9247C528.765 20.4261 529.291 19.1655 529.98 18.1428C530.669 17.1129 531.499 16.3317 532.472 15.799C533.453 15.2663 534.557 15 535.786 15C537.007 15 538.094 15.245 539.046 15.7351C540.004 16.218 540.786 16.8928 541.389 17.7592C541.993 18.6257 542.384 19.6236 542.561 20.7528H539.962C539.72 19.7727 539.252 18.9595 538.556 18.3132C537.86 17.6669 536.936 17.3438 535.786 17.3438C534.095 17.3438 532.764 18.0788 531.791 19.549C530.825 21.0192 530.338 23.0824 530.331 25.7386H530.502C530.899 25.1349 531.372 24.62 531.919 24.1939C532.472 23.7607 533.083 23.4268 533.751 23.1925C534.419 22.9581 535.125 22.8409 535.871 22.8409C537.121 22.8409 538.264 23.1534 539.301 23.7784C540.338 24.3963 541.169 25.2521 541.794 26.3459C542.419 27.4325 542.732 28.679 542.732 30.0852C542.732 31.4347 542.43 32.6705 541.826 33.7926C541.222 34.9077 540.374 35.7955 539.28 36.456C538.193 37.1094 536.915 37.429 535.445 37.4148ZM535.445 35.071C536.34 35.071 537.142 34.8473 537.852 34.3999C538.57 33.9524 539.134 33.3523 539.546 32.5994C539.965 31.8466 540.175 31.0085 540.175 30.0852C540.175 29.1832 539.972 28.3629 539.568 27.6243C539.17 26.8786 538.619 26.2855 537.916 25.8452C537.22 25.4048 536.425 25.1847 535.53 25.1847C534.855 25.1847 534.227 25.3196 533.644 25.5895C533.062 25.8523 532.551 26.2145 532.11 26.6761C531.677 27.1378 531.336 27.6669 531.088 28.2635C530.839 28.853 530.715 29.4744 530.715 30.1278C530.715 30.9943 530.917 31.804 531.322 32.5568C531.734 33.3097 532.295 33.9169 533.005 34.3786C533.722 34.8402 534.536 35.071 535.445 35.071Z" fill="black"/>
<path d="M554.038 37.4148C552.433 37.4148 551.065 36.978 549.936 36.1044C548.807 35.2237 547.944 33.9489 547.347 32.2798C546.751 30.6037 546.452 28.5795 546.452 26.2074C546.452 23.8494 546.751 21.8359 547.347 20.1669C547.951 18.4908 548.817 17.2124 549.947 16.3317C551.083 15.4439 552.447 15 554.038 15C555.629 15 556.989 15.4439 558.118 16.3317C559.254 17.2124 560.121 18.4908 560.717 20.1669C561.321 21.8359 561.623 23.8494 561.623 26.2074C561.623 28.5795 561.325 30.6037 560.728 32.2798C560.131 33.9489 559.268 35.2237 558.139 36.1044C557.01 36.978 555.643 37.4148 554.038 37.4148ZM554.038 35.071C555.629 35.071 556.864 34.304 557.745 32.7699C558.626 31.2358 559.066 29.0483 559.066 26.2074C559.066 24.3182 558.864 22.7095 558.459 21.3814C558.061 20.0533 557.486 19.0412 556.733 18.3452C555.987 17.6491 555.089 17.3011 554.038 17.3011C552.461 17.3011 551.229 18.0788 550.341 19.6342C549.453 21.1825 549.009 23.3736 549.009 26.2074C549.009 28.0966 549.208 29.7017 549.606 31.0227C550.004 32.3438 550.575 33.3487 551.321 34.0376C552.074 34.7266 552.979 35.071 554.038 35.071Z" fill="black"/>
</svg>
